<?xml version="1.0" encoding="UTF-8"?> <svg xmlns="http://www.w3.org/2000/svg" width="173" height="102" viewBox="0 0 173 102" fill="none"><path d="M113.616 61.7036L115.672 61.7036L115.672 59.6469L113.616 59.6469L113.616 61.7036ZM111.559 90.4977C111.559 91.6336 112.48 92.5544 113.616 92.5544C114.752 92.5544 115.672 91.6336 115.672 90.4977L111.559 90.4977ZM69.167 63.7603L113.616 63.7603L113.616 59.6469L69.167 59.6469L69.167 63.7603ZM111.559 61.7036L111.559 90.4977L115.672 90.4977L115.672 61.7036L111.559 61.7036Z" fill="#19A99B"></path><path d="M127.962 37.1775L130.019 37.1775L130.019 39.2342L127.962 39.2342L127.962 37.1775ZM125.905 6.05161C125.905 4.91571 126.826 3.99489 127.962 3.99489C129.098 3.99489 130.019 4.91571 130.019 6.05161L125.905 6.05161ZM60.5225 35.1208L127.962 35.1208L127.962 39.2342L60.5225 39.2342L60.5225 35.1208ZM125.905 37.1775L125.905 6.05161L130.019 6.05161L130.019 37.1775L125.905 37.1775Z" fill="#19A99B"></path><path d="M166.867 51.3385C168.003 51.3385 168.924 50.4176 168.924 49.2817C168.924 48.1458 168.003 47.225 166.867 47.225L166.867 51.3385ZM76.9482 51.3385L166.867 51.3385L166.867 47.225L76.9482 47.225V51.3385Z" fill="#19A99B"></path><circle opacity="0.7" cx="128.318" cy="6.17018" r="6.17016" transform="rotate(-90 128.318 6.17018)" fill="#01ABE2"></circle><circle opacity="0.7" cx="113.617" cy="90.4963" r="6.17016" transform="rotate(-90 113.617 90.4963)" fill="#FF675D"></circle><circle opacity="0.7" cx="166.595" cy="49.3633" r="6.17016" transform="rotate(-90 166.595 49.3633)" fill="#FB8632"></circle><rect y="18.3909" width="84.9252" height="32.5245" rx="9.0346" fill="#029A8B"></rect><rect y="47.302" width="84.9252" height="41.5591" rx="9.0346" fill="#19A99B"></rect><circle cx="18.9731" cy="33.7492" r="2.71038" fill="#1E0547"></circle><circle cx="29.8198" cy="33.7487" r="2.71038" fill="#1E0547"></circle><rect x="19.8711" y="74.4048" width="43.3661" height="27.1038" rx="5.42076" fill="#30DAFF"></rect><path d="M35.2341 94.2811C35.0493 94.2819 34.8662 94.2471 34.6954 94.1786C34.5247 94.1102 34.3699 94.0095 34.24 93.8824L29.3256 89.1345C29.1929 89.0096 29.0874 88.8602 29.0154 88.6953C28.9434 88.5303 28.9062 88.3531 28.9062 88.1741C28.9062 87.9951 28.9434 87.8178 29.0154 87.6529C29.0874 87.4879 29.1929 87.3386 29.3256 87.2136L34.6339 82.0671C34.7645 81.9398 34.9197 81.8385 35.0907 81.7692C35.2618 81.6998 35.4453 81.6637 35.6308 81.6629C35.8163 81.662 36.0001 81.6965 36.1719 81.7643C36.3436 81.8321 36.4998 81.9319 36.6316 82.058C36.7633 82.1842 36.8681 82.3341 36.9399 82.4994C37.0117 82.6646 37.0491 82.8419 37.05 83.0211C37.0508 83.2003 37.0152 83.378 36.945 83.5439C36.8748 83.7098 36.7715 83.8607 36.6409 83.988L32.308 88.1741L36.2283 91.9615C36.361 92.0865 36.4665 92.2358 36.5385 92.4008C36.6105 92.5657 36.6476 92.7429 36.6476 92.922C36.6476 93.101 36.6105 93.2782 36.5385 93.4432C36.4665 93.6081 36.361 93.7575 36.2283 93.8824C36.099 94.0103 35.9443 94.1116 35.7735 94.1801C35.6026 94.2486 35.4191 94.283 35.2341 94.2811Z" fill="#1E0547"></path><path d="M47.8709 94.2799C47.686 94.2817 47.5025 94.2474 47.3316 94.1789C47.1608 94.1103 47.006 94.0091 46.8768 93.8812C46.7441 93.7563 46.6386 93.6069 46.5666 93.4419C46.4946 93.277 46.4575 93.0998 46.4575 92.9207C46.4575 92.7417 46.4946 92.5645 46.5666 92.3995C46.6386 92.2346 46.7441 92.0852 46.8768 91.9603L50.7971 88.1729L46.4829 83.9868C46.3447 83.8623 46.2338 83.7123 46.1569 83.5456C46.0801 83.3789 46.0387 83.1989 46.0354 83.0164C46.032 82.8339 46.0668 82.6526 46.1375 82.4834C46.2083 82.3142 46.3136 82.1604 46.4472 82.0314C46.5808 81.9023 46.7399 81.8006 46.9151 81.7322C47.0902 81.6639 47.2779 81.6303 47.4668 81.6335C47.6557 81.6367 47.8419 81.6767 48.0145 81.751C48.1871 81.8252 48.3424 81.9323 48.4712 82.0659L53.7795 87.2124C53.9122 87.3374 54.0177 87.4867 54.0897 87.6517C54.1617 87.8166 54.1988 87.9938 54.1988 88.1729C54.1988 88.3519 54.1617 88.5291 54.0897 88.6941C54.0177 88.859 53.9122 89.0084 53.7795 89.1333L48.8651 93.8812C48.7352 94.0082 48.5804 94.109 48.4096 94.1774C48.2389 94.2459 48.0558 94.2807 47.8709 94.2799Z" fill="#1E0547"></path><rect x="43.3672" y="31.0383" width="25.2969" height="5.42076" rx="2.71038" fill="#1E0547"></rect><circle cx="18.9711" cy="62.6591" r="2.71038" fill="#1E0547"></circle><circle cx="29.811" cy="62.6591" r="2.71038" fill="#1E0547"></circle><rect x="43.3623" y="59.9487" width="25.2969" height="5.42076" rx="2.71038" fill="#1E0547"></rect></svg> 