<?xml version="1.0" encoding="UTF-8"?> <svg xmlns="http://www.w3.org/2000/svg" width="40" height="40" viewBox="0 0 40 40" fill="none"><path d="M6.80557 6.25196H5.96695C5.71951 6.25128 5.4744 6.29977 5.24585 6.3946C5.01731 6.48944 4.80988 6.62873 4.63561 6.8044C4.46135 6.98006 4.32373 7.1886 4.23073 7.4179C4.13772 7.6472 4.0912 7.89269 4.09386 8.14011V8.14011C4.0932 8.38543 4.14086 8.62848 4.23413 8.85538C4.3274 9.08227 4.46445 9.28858 4.63745 9.46251C4.81045 9.63644 5.01601 9.7746 5.2424 9.86908C5.4688 9.96357 5.71158 10.0125 5.9569 10.0132H6.79553C6.5017 9.43344 6.34858 8.7926 6.34858 8.14262C6.34858 7.49265 6.5017 6.85182 6.79553 6.27205L6.80557 6.25196Z" fill="#408E8A"></path><path d="M34.3791 6.25195H14.1367C14.4337 6.83077 14.5886 7.47198 14.5886 8.12253C14.5886 8.77309 14.4337 9.41429 14.1367 9.99311H34.3892C34.8777 9.98656 35.3441 9.78892 35.6886 9.44254C36.0331 9.09616 36.2282 8.62862 36.2321 8.14011V8.14011C36.2348 7.89437 36.1889 7.65052 36.0972 7.42253C36.0054 7.19455 35.8696 6.98691 35.6975 6.81151C35.5253 6.63611 35.3203 6.4964 35.094 6.40038C34.8678 6.30436 34.6249 6.25392 34.3791 6.25195V6.25195Z" fill="#408E8A"></path><path d="M10.4655 12.2785C11.2273 12.279 11.9742 12.0674 12.6226 11.6674C13.2709 11.2674 13.7951 10.6948 14.1364 10.0137H6.80469C7.14611 10.6925 7.66893 11.2635 8.31513 11.6633C8.96133 12.063 9.70564 12.276 10.4655 12.2785V12.2785Z" fill="#30FFC1"></path><path d="M10.4655 4.01762C9.70878 4.01727 8.96663 4.22569 8.32074 4.61996C7.67485 5.01423 7.15025 5.57906 6.80469 6.25227H14.1364C13.7909 5.5768 13.265 5.01035 12.6169 4.61585C11.9689 4.22136 11.2242 4.01428 10.4655 4.01762Z" fill="#30FFC1"></path><path d="M14.138 6.25195H6.80631C6.51248 6.83172 6.35938 7.47256 6.35938 8.12253C6.35938 8.77251 6.51248 9.41334 6.80631 9.99311H14.138C14.435 9.41429 14.5898 8.77309 14.5898 8.12253C14.5898 7.47198 14.435 6.83077 14.138 6.25195V6.25195Z" fill="#408E8A"></path><path d="M15.0282 30.1641H5.98916C5.49372 30.1641 5.01857 30.3609 4.66824 30.7112C4.31791 31.0615 4.12109 31.5367 4.12109 32.0321C4.12109 32.5276 4.31791 33.0027 4.66824 33.3531C5.01857 33.7034 5.49372 33.9002 5.98916 33.9002H15.0282C14.7344 33.3213 14.5813 32.6813 14.5813 32.0321C14.5813 31.383 14.7344 30.7429 15.0282 30.1641Z" fill="#408E8A"></path><path d="M34.3841 30.1641H22.332C22.629 30.742 22.7839 31.3824 22.7839 32.0321C22.7839 32.6819 22.629 33.3223 22.332 33.9002H34.3841C34.8795 33.9002 35.3547 33.7034 35.705 33.3531C36.0553 33.0027 36.2521 32.5276 36.2521 32.0321C36.2521 31.5367 36.0553 31.0615 35.705 30.7112C35.3547 30.3609 34.8795 30.1641 34.3841 30.1641Z" fill="#408E8A"></path><path d="M18.6882 36.1571C19.4473 36.1573 20.1916 35.9465 20.838 35.5484C21.4844 35.1503 22.0075 34.5804 22.349 33.9023H15.0273C15.3692 34.58 15.8925 35.1496 16.5388 35.5477C17.1851 35.9457 17.9291 36.1567 18.6882 36.1571V36.1571Z" fill="#30FFC1"></path><path d="M18.6882 27.9102C17.9293 27.9117 17.1858 28.1231 16.5397 28.5211C15.8936 28.919 15.3702 29.4879 15.0273 30.1649H22.349C22.0066 29.4876 21.4833 28.9183 20.8371 28.5203C20.1909 28.1223 19.4471 27.9111 18.6882 27.9102V27.9102Z" fill="#30FFC1"></path><path d="M22.3466 30.1641H15.025C14.7312 30.7429 14.5781 31.383 14.5781 32.0321C14.5781 32.6813 14.7312 33.3213 15.025 33.9002H22.3466C22.6436 33.3223 22.7985 32.6819 22.7985 32.0321C22.7985 31.3824 22.6436 30.742 22.3466 30.1641V30.1641Z" fill="#408E8A"></path><path d="M25.748 18.2188H5.96756C5.48821 18.2436 5.03669 18.4515 4.70619 18.7996C4.37568 19.1477 4.19141 19.6093 4.19141 20.0893C4.19141 20.5693 4.37568 21.031 4.70619 21.3791C5.03669 21.7271 5.48821 21.9351 5.96756 21.9599H25.748C25.451 21.3811 25.2961 20.7399 25.2961 20.0893C25.2961 19.4388 25.451 18.7976 25.748 18.2188Z" fill="#408E8A"></path><path d="M34.3782 18.2188H33.0625C33.3595 18.7976 33.5144 19.4388 33.5144 20.0893C33.5144 20.7399 33.3595 21.3811 33.0625 21.9599H34.3782C34.8575 21.9351 35.309 21.7271 35.6395 21.3791C35.9701 21.031 36.1543 20.5693 36.1543 20.0893C36.1543 19.6093 35.9701 19.1477 35.6395 18.7996C35.309 18.4515 34.8575 18.2436 34.3782 18.2188V18.2188Z" fill="#408E8A"></path><path d="M29.4069 24.2107C30.1647 24.2104 30.9076 24 31.553 23.6028C32.1983 23.2056 32.7209 22.6373 33.0627 21.9609H25.7461C26.0882 22.6381 26.6116 23.2069 27.258 23.6041C27.9043 24.0013 28.6483 24.2113 29.4069 24.2107V24.2107Z" fill="#30FFC1"></path><path d="M29.4069 15.9648C28.6479 15.9652 27.9038 16.1762 27.2575 16.5743C26.6112 16.9723 26.088 17.5419 25.7461 18.2196H33.0627C32.7212 17.5427 32.1988 16.9736 31.5534 16.5756C30.9081 16.1776 30.1651 15.9662 29.4069 15.9648V15.9648Z" fill="#30FFC1"></path><path d="M33.0653 18.2188H25.7487C25.4518 18.7976 25.2969 19.4388 25.2969 20.0893C25.2969 20.7399 25.4518 21.3811 25.7487 21.9599H33.0653C33.3623 21.3811 33.5172 20.7399 33.5172 20.0893C33.5172 19.4388 33.3623 18.7976 33.0653 18.2188Z" fill="#408E8A"></path></svg> 