<?xml version="1.0" encoding="UTF-8"?> <svg xmlns="http://www.w3.org/2000/svg" width="40" height="40" viewBox="0 0 40 40" fill="none"><path d="M38.7333 5.46854V4.74949C38.7333 3.79443 38.354 2.87849 37.6786 2.20316C37.0033 1.52783 36.0874 1.14844 35.1323 1.14844H5.22212C4.26706 1.14844 3.35113 1.52783 2.67581 2.20316C2.00048 2.87849 1.62109 3.79443 1.62109 4.74949V5.46854H38.7333Z" fill="#408E8A"></path><path d="M1.62109 7.71289V34.6599C1.62109 35.6149 2.00048 36.5309 2.67581 37.2062C3.35113 37.8815 4.26706 38.2609 5.22212 38.2609H35.1323C36.0874 38.2609 37.0033 37.8815 37.6786 37.2062C38.354 36.5309 38.7333 35.6149 38.7333 34.6599V7.71289H1.62109ZM10.9803 15.6862L7.98815 17.4259L5.00176 15.6862V12.2359L7.98815 10.4963L10.9803 12.2359V15.6862ZM17.7418 32.1722L15.1323 33.6799L12.5228 32.1722V29.1568L15.1323 27.6549L17.7418 29.1568V32.1722ZM17.7418 23.8915L15.1323 25.3992L12.5228 23.8915V20.8761L15.1323 19.3743L17.7418 20.8761V23.8915Z" fill="#31D7AF"></path><path d="M38.749 5.45117H1.63672V7.7069H38.749V5.45117Z" fill="#408E8A"></path><path d="M30.4696 12.9668H12.9805V14.95H30.4696V12.9668Z" fill="#408E8A"></path><path d="M35.3691 21.6699H19.2891V23.6531H35.3691V21.6699Z" fill="#408E8A"></path><path d="M35.3691 29.6719H19.2891V31.6551H35.3691V29.6719Z" fill="#408E8A"></path><path d="M12.5379 23.3742V21.3911H8.99486V19.002H7.01172V29.5384C7.01172 29.8168 7.06659 30.0925 7.17332 30.3497C7.28005 30.6068 7.43649 30.8404 7.63364 31.037C7.8308 31.2337 8.06486 31.3894 8.32232 31.4955C8.57978 31.6015 8.85559 31.6557 9.13402 31.6549H12.5379V29.6717H9.35438C9.30744 29.6725 9.26086 29.6639 9.21727 29.6465C9.17368 29.6291 9.13401 29.6031 9.10054 29.5702C9.06708 29.5373 9.04046 29.498 9.02232 29.4547C9.00419 29.4114 8.99485 29.3649 8.99486 29.318V23.3742H12.5379Z" fill="#408E8A"></path></svg> 