<?xml version="1.0" encoding="UTF-8" standalone="no"?> <!-- Generator: Gravit.io --> <svg xmlns="http://www.w3.org/2000/svg" xmlns:xlink="http://www.w3.org/1999/xlink" style="isolation:isolate" viewBox="0 0 720.099 165.521" width="720.099" height="165.521"><defs><clipPath id="_clipPath_vjwl1Tkn7meT4UjhjxI0agjlHcAG5y1s"><rect width="720.099" height="165.521"></rect></clipPath></defs><g clip-path="url(#_clipPath_vjwl1Tkn7meT4UjhjxI0agjlHcAG5y1s)"><g><path d=" M 196.937 104.143 C 197.607 102.525 198.165 101.498 198.464 100.4 C 199.987 94.799 201.402 89.168 202.933 83.569 C 205.249 75.1 213.046 74.072 219.636 75.499 C 221.902 75.99 222.449 77.957 221.971 80.124 C 220.632 86.193 219.246 92.251 217.959 98.331 C 217.791 99.127 217.834 100.171 218.22 100.85 C 221.487 106.59 220.759 111.449 215.83 115.963 C 214.058 117.585 214.346 124.938 216.484 125.806 C 217.702 126.3 219.847 125.986 220.87 125.162 C 222.731 123.663 224.293 121.655 225.582 119.609 C 232.519 108.597 236.315 96.294 239.546 83.853 C 241.684 75.623 247.871 74.087 254.886 75.377 C 257.023 75.77 257.704 77.369 257.384 79.281 C 256.291 85.809 255.098 92.321 253.917 98.835 C 252.39 107.255 250.827 115.668 249.312 124.091 C 249.169 124.884 249.194 125.725 249.255 126.535 C 249.589 131.007 252.346 132.67 256.819 130.943 C 256.819 125.751 256.236 120.408 256.921 115.232 C 259.677 94.439 275.512 77.523 294.36 74.667 C 296.615 74.325 297.193 73.292 297.439 71.095 C 299.352 54.021 302.389 37.142 309.047 21.218 C 311.329 15.76 314.403 10.313 318.303 5.914 C 327.323 -4.26 341.227 -0.778 344.916 12.306 C 347.729 22.282 346.661 32.38 344.581 42.33 C 339.686 65.742 329.649 87.148 318.187 107.911 C 315.986 111.899 315.374 115.522 316.362 119.774 C 317.862 126.225 319.131 132.73 320.586 139.191 C 321.714 144.2 320.898 147.411 317.731 148.834 C 314.193 150.423 307.03 150.496 304.582 146.416 C 302.815 143.47 301.477 140.268 299.995 137.274 C 298.429 138.771 296.68 140.412 294.964 142.087 C 286.791 150.065 275.369 151.244 265.859 144.937 C 264.43 143.989 263.468 144.005 262.038 144.814 C 256.869 147.739 251.298 149.157 245.32 148.857 C 240.534 148.616 236.625 146.631 234.881 142.145 C 233.175 137.757 232.279 133.054 231.113 128.801 C 230.353 130.744 229.506 133.228 228.423 135.605 C 226.404 140.038 223.652 143.918 219.455 146.601 C 212.807 150.852 204.695 149.077 200.543 142.34 C 197.653 137.651 195.947 132.581 196.143 126.973 C 196.224 124.658 196.156 122.337 196.156 120.019 C 195.886 119.929 195.617 119.839 195.347 119.75 C 194.943 120.609 194.426 121.433 194.152 122.332 C 191.024 132.597 185.618 141.168 175.609 145.888 C 165.195 150.799 155.02 150.115 145.545 143.312 C 144.043 142.234 143.124 142.182 141.592 143.255 C 134.086 148.511 125.664 150.286 116.863 147.989 C 113.303 147.06 110.043 144.513 107.012 142.22 C 105.501 141.077 104.571 140.658 102.77 141.343 C 87.59 147.121 71.825 149.478 55.638 148.765 C 46.503 148.363 37.606 146.484 29.332 142.457 C 11.659 133.854 1.888 119.415 0.368 100.075 C -1.485 76.486 3.477 54.388 19.37 36.068 C 34.797 18.286 54.541 11.524 77.739 16.087 C 89.738 18.448 98.295 28.393 99.819 40.574 C 100.71 47.701 100.312 54.631 97.078 61.198 C 94.367 66.704 88.213 69.032 82.543 66.698 C 79.598 65.486 77.755 62.99 77.984 59.795 C 78.253 56.04 78.967 52.319 79.351 48.57 C 80.386 38.468 75.114 32.534 64.984 32.402 C 52.687 32.242 43.189 37.839 35.801 47.212 C 27.91 57.222 24.087 68.929 23.363 81.495 C 22.967 88.365 22.92 95.468 24.212 102.178 C 27.186 117.628 37.346 126.455 52.596 129.188 C 67.959 131.942 82.856 129.425 97.357 124.056 C 97.531 123.991 97.655 123.791 97.14 124.27 C 96.86 114.323 95.936 104.944 96.458 95.646 C 97.967 68.775 102.703 42.584 115.352 18.393 C 118.214 12.92 121.717 7.922 126.742 4.165 C 133.968 -1.239 142.922 -1.292 148.28 4.261 C 152.45 8.584 153.762 14.174 154.374 19.938 C 156.104 36.244 151.869 51.514 146.054 66.459 C 139.058 84.438 129.475 101.012 118.296 116.692 C 114.884 121.478 117.993 129.888 123.746 131.385 C 127.799 132.44 131.604 131.654 135.273 129.757 C 134.64 126.088 133.636 122.528 133.474 118.931 C 132.771 103.281 136.941 89.589 150.378 80.102 C 160.194 73.171 174.242 72.882 183.499 79.508 C 190.411 84.456 193.819 91.686 195.454 99.849 C 195.634 100.749 195.787 101.656 196 102.548 C 196.069 102.823 196.294 103.062 196.937 104.143 Z M 114.866 97.376 C 115.223 97.442 115.581 97.509 115.938 97.575 C 126.783 78.696 136.313 59.267 139.056 37.296 C 139.743 31.796 139.33 26.135 139.108 20.56 C 139.026 18.499 138.378 16.078 135.745 15.668 C 133.12 15.259 131.956 17.409 131.015 19.289 C 129.469 22.376 127.968 25.523 126.857 28.784 C 121.578 44.274 118.463 60.26 116.524 76.47 C 115.694 83.405 115.402 90.405 114.866 97.376 Z M 153.012 113.224 C 157.277 113.629 158.638 114.884 158.729 118.944 C 158.781 121.257 158.56 123.642 158.02 125.888 C 157.197 129.318 157.535 130.417 160.855 131.776 C 163.891 133.018 166.889 132.676 169.681 131.074 C 174.816 128.127 176.839 123.178 177.781 117.703 C 177.92 116.897 176.977 115.833 176.392 114.987 C 174.219 111.847 171.219 109.025 169.971 105.564 C 168.399 101.205 168.24 96.337 167.423 91.393 C 161.308 89.809 152.313 98.461 153.012 113.224 Z M 314.875 89.041 C 315.759 88.108 316.041 87.928 316.155 87.674 C 323.318 71.637 329.78 55.356 332.086 37.79 C 332.921 31.432 333.635 24.97 331.623 18.672 C 331.234 17.456 330.05 16.493 329.233 15.414 C 328.176 16.262 326.607 16.9 326.154 17.997 C 324.649 21.65 323.005 25.381 322.382 29.238 C 320.096 43.411 318.101 57.633 316.209 71.865 C 315.489 77.287 315.343 82.785 314.875 89.041 Z M 278.165 130.775 C 281.653 134.066 286.454 134.089 290.047 130.629 C 292.31 128.45 294.325 125.968 296.165 123.416 C 296.907 122.387 297.205 120.795 297.157 119.479 C 296.841 110.823 296.371 102.172 295.965 93.519 C 295.919 92.541 295.959 91.56 295.959 90.535 C 287.363 91.841 277.61 103.522 277.026 112.877 C 282.807 114.127 282.804 124.257 278.165 130.775 Z " fill="rgb(54,69,72)"></path><path d=" M 600.546 122.924 C 604.243 117.517 608.742 111.927 612.134 105.731 C 616.579 97.611 620.241 89.054 624.068 80.608 C 626.876 74.41 636.633 70.757 642.637 74.05 C 643.507 74.527 644.376 76.253 644.181 77.178 C 643.686 79.534 642.77 81.853 641.698 84.028 C 638.589 90.335 638.255 96.277 643.231 101.894 C 645.054 103.952 646.642 106.223 648.267 108.449 C 653.14 115.122 657.728 121.91 655.99 130.978 C 658.953 130.694 659.275 129.379 658.69 127.005 C 655.164 112.677 657.494 99.352 666.645 87.692 C 674.262 77.988 684.484 73.713 696.878 75.342 C 705.607 76.489 711.856 83.112 712.614 91.929 C 713.558 102.918 709.421 111.653 700.037 117.33 C 695.21 120.25 689.758 122.229 684.419 124.164 C 682.137 124.991 681.229 126.599 681.049 128.334 C 680.945 129.335 682.465 130.859 683.612 131.574 C 688.651 134.713 697.99 133.942 702.646 129.84 C 705.769 127.088 708.584 123.959 711.334 120.821 C 712.941 118.987 714.83 117.233 717 118.519 C 718.501 119.409 719.736 121.772 719.96 123.615 C 720.931 131.576 716.706 137.274 710.899 141.935 C 699.937 150.732 681.815 151.432 669.77 143.547 C 667.928 142.341 666.654 142.468 664.583 143.148 C 659.596 144.786 654.375 145.711 649.253 146.945 C 648.195 147.2 646.982 147.295 646.139 147.889 C 640.586 151.804 634.488 153.021 627.83 152.043 C 620.209 150.923 616.04 146.712 615.161 139.026 C 614.881 139.07 614.524 139.016 614.34 139.17 C 608.02 144.432 600.531 146.378 592.536 146.978 C 591.48 147.057 590.289 147.343 589.445 147.937 C 583.488 152.131 576.927 153.145 569.904 151.869 C 563.981 150.793 559.182 146.099 558.833 141.128 C 558.444 135.587 562.096 131.153 567.647 130.61 C 569.564 130.422 571.519 130.522 573.452 130.61 C 575.353 130.696 577.247 130.932 579.503 131.135 C 579.077 122.507 573.984 116.695 568.784 110.329 C 568.096 111.466 567.567 112.268 567.108 113.108 C 562.222 122.047 556.052 130.004 548.759 137.1 C 545.286 140.48 541.521 141.17 538.971 138.922 C 536.274 136.545 536.263 132.359 538.948 128.623 C 539.186 128.292 539.431 127.962 539.702 127.658 C 551.691 114.244 560.292 98.777 566.761 82.122 C 569.751 74.425 574.914 73.078 581.406 73.266 C 588.034 73.458 589.575 75.485 586.3 81.146 C 580.812 90.635 582.742 98.225 589.622 106.08 C 593.894 110.951 596.798 117.024 600.546 122.924 Z M 675.874 113.097 C 676.49 113.297 676.695 113.437 676.87 113.407 C 677.866 113.238 678.885 113.123 679.841 112.816 C 686.592 110.651 692.802 107.701 695.72 100.608 C 697.147 97.139 696.23 93.083 693.917 91.334 C 691.478 89.49 687.116 89.677 684.241 92.132 C 677.757 97.669 676.282 105.193 675.874 113.097 Z M 625.529 110.502 C 623.712 112.955 624.148 112.829 624.809 115.114 C 625.599 117.844 625.958 120.851 625.731 123.675 C 625.548 125.958 624.221 128.149 623.423 130.32 C 627.661 130.539 631.779 130.751 636.212 130.98 C 635.603 122.44 630.605 116.519 625.529 110.502 Z " fill="rgb(54,69,72)"></path><path d=" M 366.857 113.252 C 367.126 93.347 369.646 75.371 377.612 58.513 C 387.561 37.457 403.028 22.735 426.067 17.017 C 436.697 14.379 447.477 14.181 458.199 16.608 C 485.827 22.861 494.518 48.33 486.193 70.628 C 480.807 85.054 470.13 94.435 456.089 99.659 C 448.631 102.434 440.536 103.534 432.683 105.174 C 430.973 105.531 430.345 106.034 430.047 107.751 C 427.925 120.003 425.687 132.235 423.457 144.468 C 423.184 145.967 422.817 147.458 422.365 148.913 C 417.899 163.278 406.633 168.754 392.397 163.649 C 382.93 160.254 376.868 153.435 372.715 144.62 C 367.807 134.204 366.816 123.075 366.857 113.252 Z M 433.291 89.452 C 435.838 89.011 437.851 88.779 439.804 88.303 C 448.458 86.192 456.218 82.588 461.113 74.651 C 465.712 67.193 466.853 58.992 465.39 50.504 C 463.925 42.009 458.833 36.115 450.57 33.855 C 435.592 29.759 421.637 32.12 409.451 42.19 C 401.398 48.845 395.975 57.445 392.11 67.037 C 387.499 78.48 385.001 90.449 384.293 102.728 C 383.729 112.511 383.407 122.429 386.703 131.829 C 388.247 136.23 390.747 140.485 393.629 144.169 C 396.012 147.216 399.249 146.337 400.862 142.746 C 401.897 140.442 402.718 137.978 403.2 135.501 C 404.424 129.2 405.398 122.851 406.482 116.523 C 407.128 112.747 407.792 108.973 408.481 105.008 C 406.052 104.604 404.043 104.352 402.071 103.925 C 397.213 102.872 394.764 99.271 395.601 94.548 C 396.378 90.166 399.728 87.997 404.732 88.618 C 406.815 88.876 408.901 89.102 411.092 89.355 C 411.409 87.733 411.681 86.445 411.91 85.15 C 413.616 75.517 415.29 65.879 417.026 56.251 C 417.78 52.068 419.785 48.707 424.079 47.426 C 428.271 46.176 432.729 45.568 436.382 48.477 C 439.913 51.29 438.974 55.501 438.35 59.333 C 436.748 69.177 435.053 79.006 433.291 89.452 Z " fill="rgb(54,69,72)"></path><path d=" M 536.276 107.349 C 536.006 118.917 533.393 128.648 526.629 136.866 C 518.2 147.107 507.245 151.145 494.387 147.904 C 482.061 144.797 476.073 135.406 473.963 123.593 C 471.559 110.135 474.239 97.56 482.765 86.622 C 491.149 75.867 505.694 71.798 517.988 76.77 C 528.471 81.01 533.403 89.629 535.488 100.206 C 536.018 102.891 536.099 105.666 536.276 107.349 Z M 492.379 113.98 C 492.749 116.898 492.899 119.865 493.537 122.723 C 494.743 128.131 498.284 131.53 502.78 132.027 C 507.226 132.518 511.228 130.186 513.609 125.156 C 517.47 117 517.798 108.419 515.411 99.846 C 514.218 95.562 511.564 92.097 506.592 91.66 C 501.453 91.208 498.17 94.081 495.853 98.268 C 493.156 103.141 492.736 108.519 492.379 113.98 Z " fill="rgb(54,69,72)"></path></g></g></svg> 