<?xml version="1.0" encoding="UTF-8"?> <svg xmlns="http://www.w3.org/2000/svg" width="55" height="55" viewBox="0 0 55 55" fill="none"><g clip-path="url(#clip0)"><path d="M53.4768 10.5252L44.4651 1.51465C43.4983 0.547852 42.1878 0 40.8246 0H18.9041C16.0585 0.0107422 13.7489 2.32031 13.7489 5.16592V13.75H18.9041V5.16592H36.0884V16.3356C36.0884 17.7644 37.2378 18.9127 38.6665 18.9127H49.8427V49.8448H24.0614V55H49.8352C52.6818 55 54.9989 52.6904 54.9989 49.8448V14.1765C54.9989 12.8133 54.4435 11.492 53.4768 10.5252V10.5252ZM41.2436 13.7575V5.58486L49.4173 13.7575H41.2436V13.7575ZM26.5772 36.3387C27.3722 35.5298 27.6826 34.3514 27.3915 33.246C26.8082 31.0277 26.8071 31.3403 27.3915 29.1188C27.6826 28.0135 27.3722 26.8351 26.5772 26.0262C24.981 24.402 25.1346 24.6716 24.5502 22.4522C24.2591 21.3469 23.4115 20.4843 22.3255 20.1889C20.147 19.5948 20.4091 19.7484 18.8139 18.1253C18.0189 17.3164 16.8609 17.0006 15.7749 17.2971C13.5921 17.8922 13.8993 17.8911 11.7197 17.2971C10.6348 17.0006 9.47676 17.3175 8.68184 18.1253C7.08018 19.756 7.33907 19.597 5.17022 20.1889C4.08418 20.4854 3.23663 21.3479 2.94551 22.4522C2.35899 24.6802 2.51583 24.3998 0.918463 26.0262C0.123541 26.8351 -0.186908 28.0135 0.104205 29.1188C0.689654 31.3436 0.686431 31.0299 0.104205 33.246C-0.186908 34.3514 0.123541 35.5298 0.918463 36.3387C2.51368 37.9618 2.36114 37.6933 2.94551 39.9126C3.23663 41.018 4.08418 41.8806 5.17022 42.176C6.70743 42.5949 6.40772 42.495 6.87178 42.7131V55L13.7468 51.5625L20.6218 55V42.7131C21.0848 42.4961 20.7851 42.5949 22.3233 42.176C23.4094 41.8795 24.2569 41.0169 24.548 39.9126C25.1367 37.6836 24.9799 37.964 26.5772 36.3387V36.3387ZM13.7489 37.8125C9.95264 37.8125 6.87393 34.7349 6.87393 30.9375C6.87393 27.1401 9.95264 24.0625 13.7489 24.0625C17.5452 24.0625 20.6239 27.1401 20.6239 30.9375C20.6239 34.7349 17.5452 37.8125 13.7489 37.8125Z" fill="#19B99A"></path></g><defs><clipPath id="clip0"><rect width="55" height="55" fill="white"></rect></clipPath></defs></svg> 