<?xml version="1.0" encoding="UTF-8"?> <svg xmlns="http://www.w3.org/2000/svg" width="120" height="41" viewBox="0 0 120 41" fill="none"><path d="M49.1793 14.7834C48.9117 14.8169 48.6842 14.8503 48.4969 14.8838C48.3096 14.9172 48.0988 14.9641 47.8647 15.0243C47.5903 15.0979 47.4131 15.2283 47.3328 15.4157C47.2592 15.603 47.2224 15.8171 47.2224 16.0579V23.9058C47.2224 24.6283 47.0752 25.2907 46.7808 25.8928C46.4931 26.4949 46.095 27.0001 45.5866 27.4082C45.0714 27.8096 44.496 28.1107 43.8605 28.3114C43.2249 28.5188 42.5458 28.6225 41.8232 28.6225C40.5721 28.6225 39.5619 28.3214 38.7925 27.7193C38.0298 27.1171 37.6484 26.2909 37.6484 25.2405C37.6484 24.6183 37.8224 24.1031 38.1703 23.695C38.5249 23.2869 39.0099 23.0828 39.6254 23.0828C40.2075 23.0828 40.6691 23.2534 41.0104 23.5947C41.3583 23.9359 41.5322 24.3574 41.5322 24.8591C41.5322 25.2873 41.3817 25.6854 41.0806 26.0534C40.7862 26.4147 40.4484 26.7492 40.067 27.0569V27.1874C40.1272 27.3212 40.2577 27.4349 40.4584 27.5286C40.6591 27.6223 40.8632 27.6691 41.0706 27.6691C41.8734 27.6691 42.5023 27.3814 42.9573 26.806C43.4189 26.2307 43.6497 25.3609 43.6497 24.1968V16.1583C43.6497 15.9174 43.6129 15.7167 43.5393 15.5562C43.4657 15.3956 43.2884 15.2551 43.0074 15.1347C42.8067 15.0477 42.5625 14.9741 42.2748 14.9139C41.9938 14.8537 41.7597 14.8102 41.5723 14.7834V14.0006H49.1793V14.7834Z" fill="#4C5566"></path><path d="M61.0915 25.8426C60.8574 26.224 60.573 26.5853 60.2385 26.9265C59.9107 27.261 59.536 27.5487 59.1145 27.7895C58.6663 28.0438 58.2113 28.2344 57.7497 28.3616C57.2947 28.4954 56.7696 28.5623 56.1741 28.5623C55.1839 28.5623 54.3276 28.4218 53.605 28.1408C52.8891 27.8598 52.297 27.4818 51.8287 27.0067C51.3604 26.5317 51.0091 25.9731 50.775 25.3308C50.5475 24.6818 50.4338 23.9794 50.4338 23.2233C50.4338 22.5409 50.5575 21.8886 50.8051 21.2664C51.0593 20.6375 51.4172 20.0789 51.8789 19.5905C52.3338 19.1154 52.9059 18.7307 53.595 18.4364C54.2908 18.142 55.0669 17.9948 55.9232 17.9948C56.8599 17.9948 57.6293 18.1085 58.2314 18.336C58.8335 18.5635 59.332 18.8779 59.7267 19.2794C60.1081 19.6607 60.3857 20.1123 60.5597 20.6342C60.7336 21.1493 60.8206 21.6912 60.8206 22.2599V22.9122H54.0365C54.0365 24.2838 54.3008 25.3275 54.8293 26.0433C55.3579 26.7592 56.1975 27.1171 57.3483 27.1171C57.9772 27.1171 58.5425 26.9465 59.0443 26.6053C59.5461 26.2574 59.9742 25.8192 60.3288 25.2907L61.0915 25.8426ZM57.258 22.0291C57.258 21.6277 57.2379 21.2162 57.1977 20.7947C57.1576 20.3732 57.0873 20.0287 56.987 19.7611C56.8733 19.4466 56.716 19.2091 56.5153 19.0485C56.3213 18.888 56.0738 18.8077 55.7727 18.8077C55.2575 18.8077 54.8461 19.0686 54.5383 19.5905C54.2306 20.1123 54.0633 20.9386 54.0365 22.0692L57.258 22.0291Z" fill="#4C5566"></path><path d="M75.3119 28.2411H69.2705V27.5085C69.3977 27.4951 69.5515 27.4784 69.7322 27.4584C69.9128 27.4383 70.05 27.4048 70.1436 27.358C70.2841 27.2844 70.3845 27.1774 70.4447 27.0369C70.5049 26.8964 70.535 26.689 70.535 26.4146V21.718C70.535 21.0356 70.4079 20.5238 70.1537 20.1826C69.9061 19.8347 69.5381 19.6607 69.0497 19.6607C68.7821 19.6607 68.5312 19.7009 68.2971 19.7811C68.0696 19.8614 67.8455 19.9785 67.6247 20.1324C67.4307 20.2662 67.2735 20.4033 67.153 20.5438C67.0393 20.6843 66.9423 20.8081 66.862 20.9152V26.3043C66.862 26.5384 66.8954 26.7358 66.9623 26.8964C67.0293 27.0502 67.1396 27.1673 67.2935 27.2476C67.4006 27.3078 67.5344 27.3613 67.6949 27.4082C67.8555 27.455 68.0127 27.4885 68.1666 27.5085V28.2411H62.065V27.5085C62.2322 27.4951 62.3995 27.4784 62.5668 27.4584C62.7407 27.4316 62.8879 27.3981 63.0083 27.358C63.2224 27.2844 63.3696 27.1707 63.4499 27.0168C63.5302 26.8629 63.5703 26.6622 63.5703 26.4146V20.5739C63.5703 20.3665 63.5168 20.1625 63.4098 19.9618C63.3027 19.7611 63.1622 19.5972 62.9883 19.47C62.8678 19.3897 62.714 19.3228 62.5266 19.2693C62.346 19.2158 62.1453 19.179 61.9245 19.1589V18.4263L66.7115 18.1654L66.862 18.3159V19.7711H66.9021C67.0895 19.6038 67.3169 19.4031 67.5846 19.169C67.8522 18.9348 68.0997 18.7441 68.3272 18.5969C68.5747 18.4364 68.8992 18.2992 69.3006 18.1855C69.7021 18.0717 70.1302 18.0149 70.5852 18.0149C71.6757 18.0149 72.492 18.326 73.0339 18.9482C73.5825 19.5637 73.8568 20.3833 73.8568 21.4069V26.3243C73.8568 26.5719 73.8936 26.7692 73.9672 26.9164C74.0408 27.0636 74.1779 27.1807 74.3786 27.2677C74.4857 27.3145 74.6161 27.3613 74.77 27.4082C74.9306 27.455 75.1112 27.4885 75.3119 27.5085V28.2411Z" fill="#4C5566"></path><path d="M89.1309 28.2411H84.4042C83.8221 27.2175 83.2902 26.3511 82.8085 25.6419C82.3268 24.926 81.8719 24.2637 81.4437 23.6549L80.8416 24.1667V26.3544C80.8416 26.5953 80.875 26.7927 80.9419 26.9465C81.0155 27.1004 81.1527 27.2142 81.3534 27.2877C81.4738 27.3413 81.6143 27.3881 81.7749 27.4282C81.9354 27.4684 82.096 27.4951 82.2566 27.5085V28.2411H76.0445V27.5085C76.2118 27.4951 76.3791 27.4784 76.5463 27.4584C76.7136 27.4316 76.8608 27.3981 76.9879 27.358C77.202 27.2844 77.3458 27.1707 77.4194 27.0168C77.4997 26.8629 77.5398 26.6622 77.5398 26.4146V15.225C77.5398 15.0042 77.4897 14.7767 77.3893 14.5426C77.2956 14.3017 77.1552 14.1211 76.9678 14.0006C76.8407 13.9204 76.65 13.8535 76.3958 13.7999C76.1416 13.7464 75.9107 13.713 75.7033 13.6996V12.967L80.691 12.7061L80.8416 12.8666V23.2233C81.3366 22.7818 81.8919 22.27 82.5075 21.6879C83.1297 21.1058 83.6281 20.6241 84.0028 20.2428C84.2235 20.0153 84.344 19.8447 84.364 19.731C84.3908 19.6105 84.4042 19.5369 84.4042 19.5102C84.4042 19.3897 84.2971 19.2894 84.083 19.2091C83.8756 19.1288 83.5612 19.0586 83.1397 18.9984V18.2858H88.2378V18.9783C87.5687 19.1656 87.0569 19.3429 86.7023 19.5102C86.3544 19.6707 85.9731 19.8882 85.5583 20.1625C85.284 20.3431 85.0163 20.5338 84.7554 20.7345C84.5012 20.9285 84.2068 21.1727 83.8723 21.4671C84.528 22.4171 85.1334 23.2969 85.6887 24.1065C86.244 24.916 86.8261 25.7724 87.4349 26.6756C87.6423 26.99 87.8999 27.2008 88.2077 27.3078C88.5154 27.4149 88.8232 27.4818 89.1309 27.5085V28.2411Z" fill="#4C5566"></path><path d="M95.5838 28.2411H89.2413V27.5085C89.4153 27.4951 89.5859 27.4784 89.7531 27.4584C89.9204 27.4383 90.0642 27.4048 90.1847 27.358C90.3988 27.2777 90.5493 27.164 90.6363 27.0168C90.7232 26.8629 90.7667 26.6622 90.7667 26.4146V20.5739C90.7667 20.3398 90.7132 20.1357 90.6062 19.9618C90.4991 19.7811 90.3653 19.6373 90.2047 19.5302C90.0843 19.45 89.9003 19.373 89.6528 19.2994C89.4119 19.2258 89.1911 19.179 88.9904 19.1589V18.4263L93.9079 18.1654L94.0584 18.3159V26.2842C94.0584 26.5184 94.1086 26.7191 94.2089 26.8863C94.3093 27.0469 94.4531 27.1673 94.6405 27.2476C94.7743 27.3078 94.9215 27.3613 95.082 27.4082C95.2426 27.455 95.4099 27.4885 95.5838 27.5085V28.2411ZM94.1186 14.5526C94.1186 15.0611 93.9213 15.4959 93.5265 15.8572C93.1385 16.2118 92.6768 16.3891 92.1416 16.3891C91.5997 16.3891 91.1314 16.2118 90.7366 15.8572C90.3486 15.4959 90.1546 15.0611 90.1546 14.5526C90.1546 14.0441 90.3486 13.6093 90.7366 13.248C91.1314 12.8867 91.5997 12.7061 92.1416 12.7061C92.6835 12.7061 93.1485 12.8867 93.5366 13.248C93.9246 13.6093 94.1186 14.0441 94.1186 14.5526Z" fill="#4C5566"></path><path d="M109.754 28.2411H103.713V27.5085C103.84 27.4951 103.994 27.4784 104.174 27.4584C104.355 27.4383 104.492 27.4048 104.586 27.358C104.726 27.2844 104.827 27.1774 104.887 27.0369C104.947 26.8964 104.977 26.689 104.977 26.4146V21.718C104.977 21.0356 104.85 20.5238 104.596 20.1826C104.348 19.8347 103.98 19.6607 103.492 19.6607C103.224 19.6607 102.973 19.7009 102.739 19.7811C102.512 19.8614 102.288 19.9785 102.067 20.1324C101.873 20.2662 101.716 20.4033 101.595 20.5438C101.481 20.6843 101.384 20.8081 101.304 20.9152V26.3043C101.304 26.5384 101.338 26.7358 101.404 26.8964C101.471 27.0502 101.582 27.1673 101.736 27.2476C101.843 27.3078 101.976 27.3613 102.137 27.4082C102.298 27.455 102.455 27.4885 102.609 27.5085V28.2411H96.5071V27.5085C96.6743 27.4951 96.8416 27.4784 97.0089 27.4584C97.1828 27.4316 97.33 27.3981 97.4504 27.358C97.6645 27.2844 97.8117 27.1707 97.892 27.0168C97.9723 26.8629 98.0124 26.6622 98.0124 26.4146V20.5739C98.0124 20.3665 97.9589 20.1625 97.8518 19.9618C97.7448 19.7611 97.6043 19.5972 97.4304 19.47C97.3099 19.3897 97.156 19.3228 96.9687 19.2693C96.7881 19.2158 96.5874 19.179 96.3666 19.1589V18.4263L101.154 18.1654L101.304 18.3159V19.7711H101.344C101.532 19.6038 101.759 19.4031 102.027 19.169C102.294 18.9348 102.542 18.7441 102.769 18.5969C103.017 18.4364 103.341 18.2992 103.743 18.1855C104.144 18.0717 104.572 18.0149 105.027 18.0149C106.118 18.0149 106.934 18.326 107.476 18.9482C108.025 19.5637 108.299 20.3833 108.299 21.4069V26.3243C108.299 26.5719 108.336 26.7692 108.409 26.9164C108.483 27.0636 108.62 27.1807 108.821 27.2677C108.928 27.3145 109.058 27.3613 109.212 27.4082C109.373 27.455 109.553 27.4885 109.754 27.5085V28.2411Z" fill="#4C5566"></path><path d="M115.344 28.5823C114.695 28.5823 114.059 28.4853 113.437 28.2913C112.822 28.104 112.343 27.9033 112.002 27.6892L111.701 28.3716H110.918L110.788 24.6283H111.52C111.621 24.9294 111.788 25.2706 112.022 25.6519C112.256 26.0266 112.524 26.3645 112.825 26.6655C113.139 26.9666 113.497 27.2208 113.899 27.4282C114.307 27.6356 114.742 27.7393 115.203 27.7393C115.812 27.7393 116.264 27.6223 116.558 27.3881C116.859 27.1472 117.01 26.7793 117.01 26.2842C117.01 26.0166 116.943 25.7958 116.809 25.6218C116.675 25.4479 116.491 25.2974 116.257 25.1702C115.996 25.0364 115.708 24.9227 115.394 24.829C115.086 24.7354 114.705 24.6216 114.25 24.4878C113.795 24.354 113.404 24.2202 113.076 24.0864C112.755 23.9459 112.42 23.7285 112.072 23.4341C111.771 23.1732 111.53 22.8587 111.35 22.4907C111.169 22.1228 111.079 21.6845 111.079 21.1761C111.079 20.2327 111.473 19.47 112.263 18.888C113.059 18.3059 114.099 18.0149 115.384 18.0149C115.993 18.0149 116.551 18.0784 117.06 18.2055C117.575 18.326 118.007 18.4598 118.355 18.607L118.565 18.0149H119.328L119.489 21.437H118.776C118.542 20.7412 118.14 20.1424 117.572 19.6406C117.003 19.1322 116.391 18.8779 115.735 18.8779C115.22 18.8779 114.815 18.985 114.521 19.1991C114.227 19.4132 114.079 19.7109 114.079 20.0922C114.079 20.6007 114.293 20.9687 114.722 21.1962C115.157 21.4236 115.762 21.6377 116.538 21.8384C117.736 22.1462 118.612 22.5677 119.167 23.1029C119.723 23.6315 120 24.3072 120 25.1301C120 26.2273 119.569 27.077 118.706 27.6791C117.849 28.2813 116.729 28.5823 115.344 28.5823Z" fill="#4C5566"></path><g clip-path="url(#clip0)"><path fill-rule="evenodd" clip-rule="evenodd" d="M28.6525 20.0945C28.6525 28.0636 22.3366 34.5239 14.5454 34.5239C6.75442 34.5239 0.438477 28.0636 0.438477 20.0945C0.438477 12.1253 6.75442 5.66487 14.5454 5.66487C22.3366 5.66487 28.6525 12.1253 28.6525 20.0945Z" fill="#D33833"></path><path d="M1.0132 23.6682C1.0132 23.6682 -0.0080471 8.62073 13.8572 8.19074L12.89 6.57851L5.36625 9.1044L3.21655 11.5764L1.33565 15.1772L0.260742 19.369L0.583189 22.1635" fill="#EF3D3A"></path><path d="M4.88319 10.2509C2.40808 12.7834 0.876465 16.28 0.876465 20.1482C0.876465 24.0157 2.40808 27.5127 4.88319 30.0448C7.35949 32.5768 10.7722 34.1392 14.5451 34.1392C18.3181 34.1392 21.731 32.5768 24.2071 30.0448C26.682 27.5127 28.214 24.0157 28.214 20.1482C28.214 16.28 26.682 12.7834 24.2071 10.2509C21.731 7.71935 18.3181 6.15693 14.5451 6.15661C10.7722 6.15693 7.35949 7.71935 4.88319 10.2509ZM4.25667 30.6573C1.62621 27.9671 0 24.2493 0 20.1482C0 16.0466 1.62621 12.3291 4.25667 9.63872C6.88652 6.9479 10.5269 5.28004 14.5451 5.28052C18.5633 5.28004 22.204 6.9479 24.8334 9.63872C27.4641 12.3291 29.0905 16.0469 29.0902 20.1482C29.0905 24.2493 27.4641 27.9671 24.8334 30.6573C22.204 33.348 18.5633 35.0156 14.5451 35.0156C10.5269 35.0156 6.88652 33.348 4.25667 30.6573" fill="#231F20"></path><path fill-rule="evenodd" clip-rule="evenodd" d="M20.4834 20.1745L18.3336 20.4969L15.4316 20.8194L13.5505 20.873L11.7234 20.8194L10.3261 20.3894L9.08999 19.0459L8.12265 16.3051L7.9077 15.7139L6.61791 15.2841L5.86552 14.048L5.32812 12.2745L5.91936 10.716L7.31653 10.2323L8.44509 10.7698L8.98261 11.9521L9.62751 11.8445L9.84239 11.5759L9.62751 10.3398L9.57366 8.78127L9.89611 6.63168L9.88351 5.4038L10.8634 3.83719L12.5832 2.60109L15.5928 1.3113L18.9247 1.79497L21.8267 3.89088L23.1703 6.04047L24.0301 7.59902L24.245 11.4684L23.6001 14.8004L22.4179 17.7561L21.2893 19.3147" fill="#F0D6B7"></path><path fill-rule="evenodd" clip-rule="evenodd" d="M18.656 29.4716L10.9709 29.794V31.0838L11.6158 35.5981L11.2934 35.9744L5.91933 34.1471L5.54303 33.5022L5.00564 27.4295L3.76977 23.7751L3.50098 22.9153L7.80017 19.9595L9.1438 19.422L10.326 20.873L11.3471 21.7867L12.5295 22.1628L13.0668 22.324L13.7117 25.1185L14.1954 25.7097L15.4315 25.2798L14.5716 26.9458L19.2471 29.1491L18.656 29.4716" fill="#335061"></path><path fill-rule="evenodd" clip-rule="evenodd" d="M5.91917 10.7158L7.31634 10.2321L8.4449 10.7697L8.98242 11.9519L9.62732 11.8444L9.78854 11.1995L9.46609 9.96353L9.78854 7.00766L9.51975 5.39542L10.4871 4.26686L12.583 2.60093L11.9918 1.79482L9.03608 3.24583L7.80001 4.21317L7.10139 5.71787L6.02655 7.16888L5.7041 8.88866L5.91917 10.7158Z" fill="#6D6B6D"></path><path fill-rule="evenodd" clip-rule="evenodd" d="M8.12266 5.66419C8.12266 5.66419 8.92878 3.67582 12.1532 2.70848C15.3777 1.74114 12.3145 2.00974 12.3145 2.00974L8.8214 3.35337L7.47776 4.69685L6.88672 5.77173L8.12266 5.66419Z" fill="#DCD9D8"></path><path fill-rule="evenodd" clip-rule="evenodd" d="M6.51022 10.3397C6.51022 10.3397 5.38165 6.57769 9.68097 6.04034L9.51975 5.39544L6.56407 6.09418L5.7041 8.88867L5.91917 10.7158L6.51022 10.3397Z" fill="#DCD9D8"></path><path fill-rule="evenodd" clip-rule="evenodd" d="M8.23047 15.3377L8.93413 14.6559C8.93413 14.6559 9.25172 14.6928 9.30538 15.069C9.35903 15.4453 9.52026 18.831 11.8311 20.6583C12.0419 20.825 10.1115 20.3894 10.1115 20.3894L8.39169 17.7024" fill="#F7E4CD"></path><path fill-rule="evenodd" clip-rule="evenodd" d="M18.1189 14.3167C18.1189 14.3167 18.2441 12.6876 18.6828 12.8129C19.1215 12.9382 19.1215 13.3769 19.1215 13.3769C19.1215 13.3769 18.0562 14.0661 18.1189 14.3167" fill="#F7E4CD"></path><path d="M22.5793 8.3514C22.5793 8.3514 21.6935 8.53842 21.6119 9.31874C21.5304 10.0992 22.5793 9.47996 22.7405 9.42627" fill="#F7E4CD"></path><path d="M16.0769 8.40539C16.0769 8.40539 14.8945 8.56662 14.8945 9.31889C14.8945 10.0713 16.2382 10.0176 16.6143 9.69518" fill="#F7E4CD"></path><path fill-rule="evenodd" clip-rule="evenodd" d="M8.76749 11.8983C8.76749 11.8983 6.72523 10.6622 6.51035 11.8446C6.29541 13.0269 5.81161 13.8869 6.8328 15.1228L6.13419 14.9079L5.48929 13.242L5.27441 11.6297L6.51035 10.3398L7.90765 10.4473L8.71376 11.0922L8.76749 11.8983Z" fill="#F7E4CD"></path><path fill-rule="evenodd" clip-rule="evenodd" d="M9.73528 8.5127C9.73528 8.5127 10.6489 3.78352 15.2707 2.86987C19.0758 2.11776 21.0747 3.03109 21.8271 3.8909C21.8271 3.8909 18.4414 -0.139531 15.2169 1.09641C11.9924 2.33251 9.6279 4.58964 9.68156 6.04049C9.77307 8.51173 9.73528 8.5127 9.73528 8.5127Z" fill="#F7E4CD"></path><path fill-rule="evenodd" clip-rule="evenodd" d="M22.2031 4.4282C22.2031 4.4282 20.6447 4.37451 20.5908 5.77184C20.5908 5.77184 20.5907 5.98675 20.6982 6.20166C20.6982 6.20166 21.9345 4.80434 22.6867 5.55677" fill="#F7E4CD"></path><path fill-rule="evenodd" clip-rule="evenodd" d="M15.3793 6.34732C15.3793 6.34732 15.111 4.20256 13.2825 5.44947C12.1002 6.25559 12.2078 7.38415 12.4226 7.59906C12.6376 7.81413 12.5791 8.24702 12.7428 7.94989C12.9063 7.65275 12.8525 6.68541 13.4437 6.41681C14.0349 6.14805 15.004 5.84785 15.3793 6.34732Z" fill="#F7E4CD"></path><path fill-rule="evenodd" clip-rule="evenodd" d="M10.326 20.8731L5.27444 23.1303C5.27444 23.1303 7.37034 31.4602 6.29543 34.0398L5.54303 33.7712L5.48931 30.6004L4.09222 24.5815L3.50098 22.9154L8.76751 19.3686L10.326 20.8731Z" fill="#49728B"></path><path fill-rule="evenodd" clip-rule="evenodd" d="M10.8464 25.4804L11.563 26.3549V29.5793H10.7031C10.7031 29.5793 10.5957 27.3222 10.5957 27.0534C10.5957 26.7847 10.7031 25.8174 10.7031 25.8174" fill="#49728B"></path><path fill-rule="evenodd" clip-rule="evenodd" d="M10.8637 30.0628L8.44531 30.1702L9.14406 30.6539L10.8637 30.9226" fill="#49728B"></path><path fill-rule="evenodd" clip-rule="evenodd" d="M19.1396 29.5254L21.128 29.4717L21.6117 34.416L19.5695 34.6846L19.1396 29.5254" fill="#335061"></path><path fill-rule="evenodd" clip-rule="evenodd" d="M19.6768 29.5254L22.6863 29.3642C22.6863 29.3642 23.9223 26.2472 23.9223 26.086C23.9223 25.9248 24.9971 21.5717 24.9971 21.5717L22.5788 19.046L22.0951 18.616L20.8053 19.9058V24.9038L19.6768 29.5254" fill="#335061"></path><path fill-rule="evenodd" clip-rule="evenodd" d="M21.0205 29.1492L19.1396 29.5253L19.4082 31.0302C20.1068 31.3526 21.2892 30.4927 21.2892 30.4927" fill="#49728B"></path><path fill-rule="evenodd" clip-rule="evenodd" d="M21.0742 19.7446L24.8361 22.5391L24.9436 21.2493L22.0952 18.616L21.0742 19.7446Z" fill="#49728B"></path><path fill-rule="evenodd" clip-rule="evenodd" d="M12.7282 40.113L11.6156 35.5981L11.0622 32.2668L10.9707 29.794L16.0065 29.526L19.1395 29.5255L18.8546 35.1688L19.3383 39.5218L19.2846 40.3279L15.2004 40.6504L12.7282 40.113" fill="white"></path><path fill-rule="evenodd" clip-rule="evenodd" d="M18.4414 29.4717C18.4414 29.4717 18.1728 35.0609 18.9789 39.0376C18.9789 39.0376 17.3667 40.0588 15.002 40.3274L19.5163 40.1662L20.0536 39.8437L19.4087 31.0303L19.2475 29.1491" fill="#DCD9D8"></path><path fill-rule="evenodd" clip-rule="evenodd" d="M21.7032 33.9863L23.7991 33.3952L27.7758 33.1802L28.367 31.3531L27.2922 28.1823L26.0562 28.0211L24.3364 28.5584L22.6865 29.364L21.8105 29.2033L21.1279 29.4716" fill="white"></path><path fill-rule="evenodd" clip-rule="evenodd" d="M21.666 32.9112C21.666 32.9112 23.0632 32.2665 23.2783 32.3202L22.6872 29.3643L23.3858 29.0957C23.3858 29.0957 23.8695 31.8902 23.8695 32.2126C23.8695 32.2126 26.8789 32.3738 27.1476 32.3738C27.1476 32.3738 27.7925 31.1378 27.6313 29.848L28.2225 31.5677L28.2762 32.5351L27.4164 33.8249L26.449 34.0398L24.8368 33.9861L24.2994 33.2875L22.4184 33.5561L21.8272 33.7712" fill="#DCD9D8"></path><path d="M19.5541 29.0962L18.3718 26.0866L17.1357 24.3132C17.1357 24.3132 17.4043 23.5607 17.7806 23.5607C18.1569 23.5607 19.0167 23.5607 19.0167 23.5607L20.199 23.9907L20.0916 25.9791L19.5541 29.0962Z" fill="white"></path><path fill-rule="evenodd" clip-rule="evenodd" d="M19.7847 28.0743C19.7847 28.0743 18.2799 25.1724 18.2799 24.7424C18.2799 24.7424 18.5485 24.0976 18.9248 24.2588C19.3011 24.42 20.1072 24.8498 20.1072 24.8498V23.8288L18.2799 23.4525L17.0439 23.6137L19.1399 28.558L19.5697 28.6118" fill="#DCD9D8"></path><path d="M13.2123 20.9812L11.7235 20.8193L10.3262 20.3893V20.873L11.0089 21.6259L13.1585 22.5933" fill="white"></path><path fill-rule="evenodd" clip-rule="evenodd" d="M10.8097 21.1422C10.8097 21.1422 12.4757 21.8409 13.0131 21.6797L13.0666 22.324L11.5621 22.0022L10.6484 21.3573L10.8097 21.1422Z" fill="#DCD9D8"></path><path fill-rule="evenodd" clip-rule="evenodd" d="M21.6978 23.7437C20.7859 23.7169 19.9621 23.6085 19.2408 23.4051C19.2898 23.1094 19.198 22.8192 19.2717 22.6062C19.4728 22.4614 19.8097 22.4637 20.1136 22.4297C19.8508 22.3005 19.4816 22.2494 19.1784 22.3241C19.1713 22.1188 19.0792 21.9916 19.0234 21.8311C19.5361 21.6481 20.7464 20.4484 21.4273 20.8457C21.7517 21.0346 21.8895 22.1138 21.9147 22.6386C21.9356 23.0739 21.8752 23.5131 21.6978 23.7437Z" fill="#D33833"></path><path d="M21.6978 23.7437C20.7859 23.7169 19.9621 23.6085 19.2408 23.4051C19.2898 23.1094 19.198 22.8192 19.2717 22.6062C19.4728 22.4614 19.8097 22.4637 20.1136 22.4297C19.8508 22.3005 19.4816 22.2494 19.1784 22.3241C19.1713 22.1188 19.0792 21.9916 19.0234 21.8311C19.5361 21.6481 20.7464 20.4484 21.4273 20.8457C21.7517 21.0346 21.8895 22.1138 21.9147 22.6386C21.9356 23.0739 21.8752 23.5131 21.6978 23.7437Z" stroke="#D33833" stroke-width="0.322447"></path><path fill-rule="evenodd" clip-rule="evenodd" d="M17.3375 22.2529C17.3351 22.3219 17.3322 22.3914 17.3295 22.461C17.0448 22.6481 16.5851 22.6458 16.2727 22.803C16.7333 22.8232 17.0959 22.9341 17.4096 23.0905C17.4027 23.2643 17.3961 23.4379 17.3893 23.6117C16.8674 23.969 16.3907 24.501 15.7762 24.8361C15.4857 24.9945 14.4661 25.4022 14.157 25.3302C13.9821 25.2896 13.9664 25.0725 13.8965 24.868C13.7475 24.4299 13.4046 23.7326 13.3747 23.0732C13.3366 22.2403 13.2525 20.8445 14.1501 21.016C14.8742 21.1542 15.7164 21.4877 16.277 21.7941C16.6196 21.9814 16.8178 22.2129 17.3375 22.2529" fill="#D33833"></path><path d="M17.3375 22.2529C17.3351 22.3219 17.3322 22.3914 17.3295 22.461C17.0448 22.6481 16.5851 22.6458 16.2727 22.803C16.7333 22.8232 17.0959 22.9341 17.4096 23.0905C17.4027 23.2643 17.3961 23.4379 17.3893 23.6117C16.8674 23.969 16.3907 24.501 15.7762 24.8361C15.4857 24.9945 14.4661 25.4022 14.157 25.3302C13.9821 25.2896 13.9664 25.0725 13.8965 24.868C13.7475 24.4299 13.4046 23.7326 13.3747 23.0732C13.3366 22.2403 13.2525 20.8445 14.1501 21.016C14.8742 21.1542 15.7164 21.4877 16.277 21.7941C16.6196 21.9814 16.8178 22.2129 17.3375 22.2529V22.2529Z" stroke="#D33833" stroke-width="0.322447"></path><path fill-rule="evenodd" clip-rule="evenodd" d="M17.8559 23.2468C17.7762 22.7931 17.6842 22.6636 17.7198 22.2678C18.9298 21.4611 19.157 23.6535 17.8559 23.2468Z" fill="#D33833"></path><path d="M17.8559 23.2468C17.7762 22.7931 17.6842 22.6636 17.7198 22.2678C18.9298 21.4611 19.157 23.6535 17.8559 23.2468Z" stroke="#D33833" stroke-width="0.322447"></path><path fill-rule="evenodd" clip-rule="evenodd" d="M19.6079 23.6145C19.6079 23.6145 19.2316 23.077 19.5004 22.9158C19.7691 22.7545 20.0379 22.9159 20.1991 22.6472C20.3603 22.3784 20.1991 22.2172 20.2528 21.8947C20.3065 21.5723 20.5754 21.5184 20.844 21.4647C21.1126 21.4111 21.8652 21.3035 21.9726 21.5723L21.6501 20.6049L21.0052 20.39L18.963 21.5723L18.8555 22.1635V23.3457" fill="#EF3D3A"></path><path fill-rule="evenodd" clip-rule="evenodd" d="M13.9651 25.3879C13.9006 24.5492 13.8322 23.7117 13.7562 22.8738C13.6425 21.6227 14.0567 21.841 15.1412 21.841C15.3069 21.841 16.1611 22.0385 16.2222 22.1635C16.5153 22.7621 15.7321 22.6291 16.5598 23.0805C17.2586 23.4615 18.4929 22.8491 18.2106 22.0022C18.0526 21.8139 17.3874 21.9435 17.1489 21.8199C16.7291 21.6022 16.3093 21.3846 15.8894 21.1669C15.3552 20.8898 14.1207 20.4858 13.5512 20.873C12.1081 21.8544 13.6422 24.3064 14.157 25.3302" fill="#EF3D3A"></path><path fill-rule="evenodd" clip-rule="evenodd" d="M15.3794 6.34714C13.9147 6.00599 13.1869 6.96012 12.7429 7.94971C12.3464 7.85362 12.5042 7.31449 12.6043 7.03976C12.8665 6.31877 13.9231 5.359 14.7864 5.48911C15.1579 5.54506 15.6606 5.88475 15.3794 6.34714" fill="#231F20"></path><path fill-rule="evenodd" clip-rule="evenodd" d="M22.5158 8.01532C22.5389 8.01629 22.5623 8.01709 22.5853 8.01806C22.9163 8.70568 23.2028 9.43409 23.6204 10.0411C23.3407 10.6926 21.5022 11.2691 21.5306 10.0993C21.9282 9.9255 22.6145 10.0638 22.9669 9.84183C22.7632 9.28254 22.4691 8.80645 22.5158 8.01532" fill="#231F20"></path><path fill-rule="evenodd" clip-rule="evenodd" d="M16.1292 8.03323C16.4433 8.60896 16.5455 9.21388 16.9919 9.64902C17.193 9.8449 17.584 10.0837 17.3902 10.6285C17.3449 10.7569 17.0139 11.0434 16.8228 11.0997C16.1249 11.3058 14.4986 11.1423 15.0493 10.2721C15.6265 10.2991 16.4023 10.647 16.8338 10.228C16.5025 9.69835 15.9118 8.65056 16.1292 8.03323" fill="#231F20"></path><path fill-rule="evenodd" clip-rule="evenodd" d="M22.2537 13.8847C21.2029 14.5597 20.0311 15.2938 18.3092 15.1235C17.9413 14.8037 17.8011 14.0919 18.1585 13.6217C18.3445 13.9416 18.2277 14.5299 18.7462 14.6184C19.7232 14.7856 20.8603 14.0208 21.5631 13.7534C21.9988 13.0188 21.5255 12.7485 21.1329 12.2757C20.3292 11.3069 19.2511 10.1061 19.2903 8.65572C19.6151 8.42017 19.6432 9.01525 19.6898 9.12359C20.1095 10.1058 21.1656 11.3619 21.9364 12.2025C22.1257 12.4095 22.4374 12.6081 22.472 12.745C22.572 13.1431 22.212 13.62 22.2537 13.8847" fill="#231F20"></path><path fill-rule="evenodd" clip-rule="evenodd" d="M8.3999 13.174C8.07052 12.986 7.99212 12.158 7.60542 12.1344C7.0528 12.1009 7.15356 13.2086 7.15577 13.8564C6.77538 13.5111 6.70849 12.4478 6.98794 11.9018C6.66945 11.7454 6.52724 12.0743 6.35059 12.1902C6.57762 10.5409 8.76328 11.4252 8.3999 13.174Z" fill="#231F20"></path><path fill-rule="evenodd" clip-rule="evenodd" d="M22.9225 14.5713C22.4333 15.5024 21.7413 16.5278 20.306 16.5576C20.2768 16.2569 20.2544 15.7994 20.3076 15.6183C21.4049 15.5129 22.0823 14.9544 22.9225 14.5713Z" fill="#231F20"></path><path fill-rule="evenodd" clip-rule="evenodd" d="M16.0459 15.175C16.9614 15.6565 18.6439 15.7082 19.8882 15.6718C19.955 15.9444 19.9534 16.2812 19.956 16.6136C18.3565 16.6934 16.4653 16.2976 16.0459 15.175Z" fill="#231F20"></path><path fill-rule="evenodd" clip-rule="evenodd" d="M15.8721 16.0729C16.5052 17.6624 18.6811 17.4794 20.516 17.4355C20.4352 17.6419 20.2601 17.8857 20.0425 17.9739C19.4545 18.2131 17.8327 18.3947 17.0165 17.9611C16.4988 17.6859 16.1662 17.0641 15.8825 16.6996C15.7455 16.5235 15.0635 16.0738 15.8721 16.0729" fill="#231F20"></path><path fill-rule="evenodd" clip-rule="evenodd" d="M22.177 24.8406C21.434 26.113 20.7232 27.4199 19.8418 28.5422C20.2113 27.4557 20.3695 25.6372 20.4253 24.2509C21.1983 23.8891 21.8603 24.3323 22.177 24.8406Z" fill="#81B0C4"></path><path fill-rule="evenodd" clip-rule="evenodd" d="M26.1749 29.4137C25.3431 29.5802 24.7587 30.3886 23.9473 30.3367C24.3932 29.7081 25.1747 29.4431 26.1749 29.4137Z" fill="#231F20"></path><path fill-rule="evenodd" clip-rule="evenodd" d="M26.5417 30.7153C25.8638 30.7869 25.0675 30.8966 24.3799 30.8401C24.7054 30.3429 25.9596 30.5144 26.5417 30.7153Z" fill="#231F20"></path><path fill-rule="evenodd" clip-rule="evenodd" d="M26.7769 31.8378C26.015 31.8543 25.068 31.8391 24.3438 31.7783C24.7721 31.3182 26.2828 31.6076 26.7769 31.8378Z" fill="#231F20"></path><path fill-rule="evenodd" clip-rule="evenodd" d="M20.7437 34.909C20.853 35.8659 21.2323 36.8354 21.1848 37.8834C20.7635 38.0254 20.5215 38.1497 19.9571 38.1489C19.9172 37.2583 19.7981 35.8968 19.8337 35.0478C20.1113 35.0661 20.5207 34.8494 20.7437 34.909Z" fill="#DCD9D8"></path><path fill-rule="evenodd" clip-rule="evenodd" d="M19.515 20.8064C19.1324 21.0561 18.8066 21.3679 18.4392 21.6346C17.6243 21.6749 17.1797 21.5781 16.5811 21.1103C16.5909 21.0727 16.651 21.0895 16.6533 21.0434C17.5255 21.4321 18.6342 20.885 19.515 20.8064" fill="#F0D6B7"></path><path fill-rule="evenodd" clip-rule="evenodd" d="M14.9365 26.7519C15.1762 25.7135 16.1152 25.1757 16.9679 24.6038C17.848 25.7208 18.3832 27.1573 18.9727 28.5435C17.58 28.1236 16.1571 27.4425 14.9365 26.7519Z" fill="#81B0C4"></path><path fill-rule="evenodd" clip-rule="evenodd" d="M19.8334 35.0475C19.7978 35.8965 19.9169 37.2581 19.9568 38.1487C20.5212 38.1495 20.7632 38.0252 21.1845 37.8831C21.232 36.8352 20.8527 35.8656 20.7434 34.9087C20.5204 34.8492 20.111 35.0659 19.8334 35.0475V35.0475ZM11.0445 30.2191C11.4167 33.6407 11.9557 36.5171 12.9445 39.547C15.139 40.2133 17.7844 40.2714 19.7241 39.6701C19.368 37.96 19.5236 35.878 19.3154 34.0531C19.1585 32.6815 19.2385 31.3014 19.0234 29.9019C16.6731 29.413 13.351 29.7876 11.0445 30.2191V30.2191ZM19.5792 29.9234C19.5593 31.3929 19.645 32.8425 19.7572 34.3138C20.3214 34.2291 20.7044 34.1726 21.2287 34.0576C21.0584 32.6412 21.0794 31.0472 20.7326 29.7942C20.3318 29.7981 19.9788 29.7896 19.5792 29.9234V29.9234ZM22.4417 29.6865C22.1739 29.6251 21.8621 29.6842 21.6062 29.6891C21.7265 30.887 22.0183 32.2089 22.121 33.4663C22.5236 33.4788 22.7387 33.289 23.0698 33.2251C23.0876 32.1213 22.9734 30.6007 22.4417 29.6865V29.6865ZM26.776 33.6467C27.6152 33.4429 28.1429 32.4151 27.9081 31.3596C27.7506 30.6502 27.4701 29.3144 27.1699 28.8606C26.9481 28.5249 26.3465 28.0855 25.8662 28.393C25.085 28.8933 23.7086 29.0386 23.1388 29.6442C23.4245 30.5954 23.5132 31.9019 23.631 33.1072C24.6071 33.168 25.808 32.8386 26.6198 33.1882C26.0531 33.3718 25.3178 33.3732 24.8281 33.6407C25.2283 33.834 26.1652 33.795 26.776 33.6467V33.6467ZM18.9723 28.5433C18.3829 27.1571 17.8476 25.7206 16.9675 24.6036C16.1148 25.1755 15.1758 25.7133 14.9362 26.7518C16.1567 27.4423 17.5797 28.1235 18.9723 28.5433ZM20.4253 24.2507C20.3695 25.6371 20.2113 27.4555 19.8418 28.542C20.7232 27.4197 21.4341 26.1129 22.177 24.8404C21.8603 24.3321 21.1983 23.8889 20.4253 24.2507V24.2507ZM18.7782 23.6655C18.4443 23.6295 18.1609 24.0494 17.7267 23.8678C17.6272 23.9778 17.5368 24.0969 17.4354 24.2043C18.3943 25.36 18.8301 26.9996 19.5708 28.3577C19.9682 27.0531 19.9224 25.6238 20.01 24.1999C19.4639 24.2346 19.161 23.7061 18.7782 23.6655ZM17.7191 22.2677C17.6835 22.6635 17.7756 22.7929 17.8552 23.2466C19.1563 23.6534 18.9291 21.4609 17.7191 22.2677ZM16.2763 21.794C15.7157 21.4877 14.8735 21.1541 14.1494 21.0159C13.2518 20.8442 13.3359 22.2403 13.374 23.0731C13.4039 23.7325 13.7468 24.4298 13.8958 24.8679C13.9657 25.0725 13.9814 25.2895 14.1563 25.3301C14.4654 25.4021 15.485 24.9944 15.7756 24.836C16.39 24.5009 16.8667 23.9689 17.3886 23.6116C17.3954 23.4378 17.402 23.2642 17.4089 23.0904C17.0952 22.934 16.7326 22.8231 16.272 22.8029C16.5844 22.6457 17.0441 22.648 17.3288 22.461C17.3316 22.3913 17.3345 22.3218 17.3369 22.2528C16.8171 22.2129 16.6189 21.9813 16.2763 21.794V21.794ZM10.9215 20.8213C10.4562 21.2937 12.2266 21.9376 12.7902 21.9723C12.7871 21.6734 12.9606 21.3916 12.9256 21.1772C12.2562 21.0596 11.3764 21.1372 10.9215 20.8213V20.8213ZM16.6533 21.0432C16.651 21.0893 16.5909 21.0725 16.5811 21.1101C17.1797 21.578 17.6243 21.6747 18.4392 21.6344C18.8066 21.3677 19.1324 21.0559 19.515 20.8062C18.6342 20.8849 17.5255 21.4319 16.6533 21.0432V21.0432ZM21.9143 22.6385C21.8892 22.1137 21.7513 21.0345 21.427 20.8455C20.7461 20.4481 19.5358 21.6479 19.0231 21.8309C19.0789 21.9915 19.171 22.1187 19.178 22.3239C19.4813 22.2493 19.8505 22.3004 20.1133 22.4295C19.8094 22.4636 19.4724 22.4613 19.2714 22.6061C19.1977 22.8191 19.2895 23.1093 19.2404 23.4049C19.9618 23.6084 20.7856 23.7168 21.6975 23.7435C21.8748 23.513 21.9353 23.0738 21.9143 22.6385V22.6385ZM10.1382 21.2782C9.99209 21.1741 9.00366 19.888 8.86825 19.9414C7.07968 20.6467 5.40729 21.8664 3.91283 23.0199C5.33771 26.0774 5.91289 29.8233 6.01453 33.4337C7.64679 34.1971 9.08048 35.2976 11.2954 35.4126C11.0391 33.5991 10.8051 31.9812 10.6597 30.2739C10.1031 30.0393 9.30468 30.2845 8.78386 30.2011C8.77945 29.5735 9.57928 29.9263 9.64589 29.5042C9.6961 29.185 9.20582 29.1608 9.36546 28.6581C9.77262 28.8061 9.98643 29.133 10.4207 29.2558C10.8174 28.3878 10.4151 26.8519 10.4723 26.1264C10.4831 25.9902 10.5403 25.3717 10.8454 25.4802C11.1155 25.5763 10.83 27.125 10.8596 27.8117C10.8866 28.4443 10.7832 29.0564 11.0394 29.4536C13.1797 29.1623 15.3547 28.9739 17.6704 28.9104C17.161 28.6918 16.5557 28.4849 15.8922 28.1109C15.5325 27.9081 14.3985 27.4862 14.2947 27.1445C14.1291 26.6001 14.7293 26.31 14.8319 25.8433C13.7516 26.4325 13.5408 25.2785 13.2852 24.461C13.0536 23.7205 12.9218 23.1673 12.865 22.7402C11.9343 22.2965 10.9393 21.8472 10.1382 21.2782V21.2782ZM20.9691 20.097C22.4593 19.3744 22.7279 22.7976 22.1438 23.9004C22.234 24.2293 22.5446 24.3552 22.6713 24.6509C21.8397 26.1406 20.916 27.5311 20.0675 29.0033C20.6987 28.6104 21.6003 28.933 22.343 28.6389C22.6145 28.5315 22.8111 27.91 23.0166 27.4128C23.582 26.0448 24.1757 24.3202 24.4397 23.0148C24.4994 22.7173 24.6619 22.0692 24.6255 21.8045C24.5605 21.3305 23.9174 20.979 23.5903 20.6859C22.9876 20.1445 22.6081 19.6681 21.9795 19.1619C21.7246 19.5382 21.1775 19.791 20.9691 20.097V20.097ZM6.73015 6.88178C6.02007 7.66307 6.1687 9.12698 6.25467 10.1685C7.53815 9.36108 9.24171 10.2323 9.22565 11.6056C9.83843 11.5893 9.45457 10.8403 9.34373 10.3578C8.98149 8.78164 9.95399 7.06928 9.38782 5.62794C8.28854 5.7113 7.38543 6.1603 6.73015 6.88178V6.88178ZM11.8109 2.3472C10.2034 2.80282 8.14318 3.97089 7.48261 5.41497C7.99411 5.34064 8.34919 5.08269 8.85377 5.05076C9.04446 5.03835 9.2943 5.13073 9.51346 5.07624C9.95022 4.96789 10.3188 3.98862 10.6483 3.62426C10.9695 3.26843 11.3556 3.1164 11.6198 2.79202C11.7895 2.71012 12.0405 2.71576 12.0501 2.46087C11.9765 2.38219 11.8991 2.32221 11.8109 2.3472V2.3472ZM20.1789 2.77574C18.5104 1.83435 15.6863 1.12626 13.9114 2.01105C12.4793 2.72511 10.5435 3.90656 9.88346 5.40368C10.5 6.84841 9.70082 8.17221 9.64981 9.63903C9.62273 10.4195 10.0173 11.1008 10.0475 11.9505C9.83654 12.2986 9.19195 12.3415 8.74575 12.3176C8.59555 11.566 8.33261 10.7212 7.55863 10.6364C6.46344 10.5166 5.66267 11.423 5.61292 12.3702C5.55404 13.484 6.46847 15.3302 7.76456 15.202C8.26524 15.1526 8.38824 14.6507 8.93375 14.6558C9.22942 15.2457 8.47767 15.431 8.40033 15.8529C8.38018 15.9619 8.46267 16.3878 8.51065 16.5876C8.74607 17.5603 9.27087 18.8191 9.78742 19.5596C10.443 20.4989 11.731 20.6404 13.1167 20.7325C13.3642 20.1993 14.276 20.2432 14.8701 20.3826C14.1581 20.1007 13.4962 19.4171 12.9476 18.812C12.3175 18.1178 11.6793 17.3731 11.647 16.4657C12.8378 18.1176 13.8215 19.5602 15.9867 20.2869C17.625 20.8363 19.5384 20.035 20.7972 19.1511C21.3196 18.7836 21.6314 18.2006 22.0027 17.667C23.392 15.6686 24.0402 12.8163 23.8977 10.0516C23.839 8.91142 23.8416 7.77512 23.459 7.00802C23.0592 6.20593 21.7068 5.48832 20.9152 6.21383C20.7685 5.43383 21.5735 4.95145 22.5191 5.23214C21.8448 4.36202 21.1372 3.31648 20.1789 2.77574V2.77574ZM23.2875 28.5017C24.5913 27.8536 27.0274 26.7571 27.8448 28.5041C28.1464 29.1481 28.5003 30.2366 28.6565 30.9014C28.8773 31.8392 28.4173 33.8103 27.4533 34.125C26.6019 34.403 25.6085 34.386 24.5829 34.18C24.4622 34.0796 24.3277 33.9045 24.2337 33.722C23.5014 33.6936 22.8157 33.7613 22.2373 34.0623C22.2921 34.6039 21.9258 34.6908 21.5824 34.8023C21.3278 35.8117 22.0917 37.1299 21.9089 38.0503C21.7784 38.7061 20.9717 38.8075 20.3787 38.9301C20.3593 39.2945 20.4046 39.5987 20.4451 39.907C20.3095 40.4066 19.7014 40.691 19.1252 40.7607C17.2293 40.9886 14.3508 41.091 12.5273 40.4353C12.0184 39.1872 11.6175 37.6691 11.1937 36.2438C9.41522 36.4337 7.97679 35.4764 6.62076 34.8492C6.15126 34.6316 5.50177 34.5117 5.32637 34.138C5.15633 33.7761 5.22592 33.0827 5.18372 32.4277C5.07635 30.7546 4.9844 29.141 4.5426 27.428C4.34423 26.6593 3.99847 25.981 3.75727 25.2403C3.53433 24.5538 3.14481 23.7055 3.04322 23.0209C2.89259 22.0063 3.84795 21.9499 4.45885 21.5102C5.4032 20.8304 6.14446 20.4544 7.16721 19.8408C7.47013 19.6591 8.38364 19.1991 8.48755 18.9873C8.69411 18.5673 8.13299 17.9751 7.98297 17.6459C7.74566 17.1253 7.62191 16.683 7.58791 16.1694C6.72995 16.0338 6.07958 15.5232 5.68673 14.9475C5.03687 13.9946 4.58618 12.2318 5.14845 10.8909C5.19254 10.7853 5.41245 10.5777 5.44489 10.4155C5.50888 10.0961 5.32447 9.67143 5.31301 9.33173C5.25394 7.58891 5.60789 6.08727 6.78116 5.56168C7.25746 3.66424 8.96221 3.03337 10.5683 2.09037C11.1687 1.73794 11.8305 1.51271 12.514 1.2612C14.966 0.358832 18.7279 0.528763 20.7629 2.0678C21.6257 2.72044 23.005 4.09841 23.4984 5.09607C24.8014 7.72998 24.7088 12.1319 23.7974 15.3359C23.6749 15.766 23.4972 16.3983 23.2491 16.915C23.0761 17.2759 22.5384 17.9978 22.6037 18.3164C22.671 18.6458 23.8297 19.5256 24.0781 19.7652C24.5255 20.1968 25.3755 20.7696 25.4443 21.3142C25.5183 21.8938 25.1889 22.6867 25.0221 23.246C24.4642 25.1124 23.92 26.8377 23.2875 28.5017" fill="#231F20"></path><path fill-rule="evenodd" clip-rule="evenodd" d="M14.5892 15.5817C14.66 15.4876 15.0489 15.3446 15.593 15.6066C15.593 15.6066 14.9481 15.7141 15.0018 16.7893L14.733 16.7355C14.733 16.7355 14.4553 15.7605 14.5892 15.5817" fill="#F7E4CD"></path><path fill-rule="evenodd" clip-rule="evenodd" d="M19.3012 24.8232C19.3012 24.9863 19.1688 25.1187 19.0055 25.1187C18.8423 25.1187 18.71 24.9863 18.71 24.8232C18.71 24.66 18.8423 24.5275 19.0055 24.5275C19.1688 24.5275 19.3012 24.66 19.3012 24.8232Z" fill="#1D1919"></path><path fill-rule="evenodd" clip-rule="evenodd" d="M19.5971 26.1935C19.5971 26.3567 19.4647 26.489 19.3014 26.489C19.1382 26.489 19.0059 26.3567 19.0059 26.1935C19.0059 26.0303 19.1382 25.8978 19.3014 25.8978C19.4647 25.8978 19.5971 26.0303 19.5971 26.1935Z" fill="#1D1919"></path></g><defs><clipPath id="clip0"><rect width="29.1492" height="40.2414" fill="white" transform="translate(0 0.693359)"></rect></clipPath></defs></svg> 