<?xml version="1.0" encoding="UTF-8"?> <svg xmlns="http://www.w3.org/2000/svg" width="55" height="55" viewBox="0 0 55 55" fill="none"><path d="M39.9287 25.5664L21.0225 14.0723C19.3252 13.127 17.1875 14.3408 17.1875 16.3281V38.6719C17.1875 40.6484 19.3145 41.873 21.0225 40.9277L39.9287 30.0781C41.6904 29.1006 41.6904 26.5547 39.9287 25.5664ZM54.1406 27.5C54.1406 12.7832 42.2168 0.859375 27.5 0.859375C12.7832 0.859375 0.859375 12.7832 0.859375 27.5C0.859375 42.2168 12.7832 54.1406 27.5 54.1406C42.2168 54.1406 54.1406 42.2168 54.1406 27.5ZM6.01562 27.5C6.01562 15.6299 15.6299 6.01562 27.5 6.01562C39.3701 6.01562 48.9844 15.6299 48.9844 27.5C48.9844 39.3701 39.3701 48.9844 27.5 48.9844C15.6299 48.9844 6.01562 39.3701 6.01562 27.5Z" fill="#19B99A"></path></svg> 