<?xml version="1.0" encoding="UTF-8"?> <svg xmlns="http://www.w3.org/2000/svg" width="46" height="42" viewBox="0 0 46 42" fill="none"><g clip-path="url(#clip0)"><path d="M37.0552 0.857239H8.94405C8.62461 0.857239 8.32113 1.01696 8.14544 1.28849L0.159329 13.044C-0.0722683 13.3954 -0.0483099 13.8586 0.215232 14.1781L22.2569 41.3947C22.6402 41.8659 23.359 41.8659 23.7423 41.3947L45.784 14.1781C46.0475 13.8506 46.0715 13.3954 45.8399 13.044L37.8618 1.28849C37.6781 1.01696 37.3826 0.857239 37.0552 0.857239ZM35.5138 4.69057L40.5691 12.3572H35.1066L30.9777 4.69057H35.5138V4.69057ZM19.3739 4.69057H26.6173L30.7461 12.3572H15.2531L19.3739 4.69057ZM10.4854 4.69057H15.0215L10.8927 12.3572H5.43016L10.4854 4.69057ZM7.05134 16.1906H11.1562L16.6107 28.9683L7.05134 16.1906V16.1906ZM15.2691 16.1906H30.7302L22.9996 35.6208L15.2691 16.1906V16.1906ZM29.3885 28.9683L34.835 16.1906H38.9399L29.3885 28.9683Z" fill="#19B99A"></path></g><defs><clipPath id="clip0"><rect y="0.857178" width="46" height="40.8889" fill="white"></rect></clipPath></defs></svg> 