<?xml version="1.0" encoding="UTF-8"?> <svg xmlns="http://www.w3.org/2000/svg" width="49" height="40" viewBox="0 0 49 40" fill="none"><g clip-path="url(#clip0)"><path d="M22.785 18.888C23.2597 19.3627 23.8798 19.6 24.5 19.6C25.1202 19.6 25.7403 19.3627 26.215 18.888L33.5956 11.5073C34.545 10.5656 34.545 9.02672 33.5956 8.085L26.215 0.712031C25.7403 0.237344 25.1202 0 24.5 0C23.8798 0 23.2597 0.237344 22.785 0.712031L15.4044 8.09266C14.455 9.03437 14.455 10.5733 15.4044 11.515L22.785 18.888ZM24.5 4.13437L30.1656 9.8L24.5 15.4656L18.8344 9.8L24.5 4.13437ZM43.8627 7.36531C40.6547 7.15094 37.975 9.70047 37.975 12.8625C37.975 12.8625 37.9673 15.8484 37.9597 18.6812C37.0639 18.0841 35.992 17.7625 34.9125 17.7625C33.1898 17.7625 31.5973 18.5434 30.5484 19.9062L25.0513 27.0495C24.8445 27.3175 24.6684 27.6161 24.5 27.907C24.3239 27.6161 24.1555 27.3175 23.9487 27.0495L18.4516 19.9062C17.395 18.5434 15.8025 17.7625 14.0875 17.7625C13.008 17.7625 11.9361 18.0917 11.0403 18.6812C11.0327 15.8408 11.025 12.8625 11.025 12.8625C11.025 9.70047 8.34531 7.15094 5.13734 7.36531C2.205 7.55672 0 10.1216 0 13.0539V27.7156C0 29.6527 0.666094 31.5591 1.87578 33.075L6.37 38.7406C6.59969 39.0316 6.95953 39.2077 7.32703 39.2077H8.575C9.24875 39.2077 9.8 38.6564 9.8 37.9827V37.0945L4.74688 30.7781C4.05016 29.913 3.675 28.8334 3.675 27.7156V12.9314C3.675 12.0433 4.27219 11.2241 5.145 11.0633C6.31641 10.8336 7.35 11.7294 7.35 12.8625C7.35 12.8625 7.36531 20.5953 7.37297 23.0147C7.37297 23.5966 7.58734 24.1478 7.97016 24.5919L13.8272 31.6816C14.1641 32.0873 14.6464 32.2941 15.1288 32.2941C15.5728 32.2941 16.0245 32.118 16.3614 31.7581C16.9356 31.1533 16.9203 30.1962 16.4227 29.5225L12.6328 24.3928C12.0127 23.5889 12.1658 22.4328 12.9697 21.8127C13.3066 21.5523 13.697 21.4298 14.0875 21.4298C14.6388 21.4298 15.1823 21.6748 15.5498 22.1495L21.0394 29.2852C21.6978 30.1427 22.0577 31.1916 22.0577 32.2711V37.975C22.0577 38.6487 22.6089 39.2 23.2827 39.2H25.7327C26.4064 39.2 26.9577 38.6487 26.9577 37.975V32.2787C26.9577 31.1992 27.3175 30.1503 27.9759 29.2928L33.4655 22.1572C33.8253 21.6902 34.3766 21.4375 34.9278 21.4375C35.3183 21.4375 35.7087 21.56 36.0456 21.8203C36.8495 22.4405 37.0027 23.5889 36.3825 24.4005L32.5927 29.5302C32.095 30.2039 32.0873 31.1609 32.6539 31.7658C32.9908 32.1256 33.4348 32.3017 33.8866 32.3017C34.3689 32.3017 34.8513 32.095 35.1881 31.6892L41.0452 24.5995C41.428 24.1555 41.6347 23.6042 41.6423 23.0223C41.6347 20.5953 41.65 12.8625 41.65 12.8625C41.65 11.7294 42.6759 10.8336 43.855 11.0633C44.7278 11.2317 45.325 12.0433 45.325 12.9314V27.7156C45.325 28.8258 44.9498 29.9053 44.2531 30.7705L39.2 37.0869V37.975C39.2 38.6487 39.7513 39.2 40.425 39.2H41.673C42.0481 39.2 42.4003 39.0316 42.63 38.733L47.1242 33.0673C48.3339 31.5514 49 29.6527 49 27.708V13.0539C49 10.1216 46.795 7.55672 43.8627 7.36531V7.36531Z" fill="#19B99A"></path></g><defs><clipPath id="clip0"><rect width="49" height="39.2" fill="white"></rect></clipPath></defs></svg> 