<?xml version="1.0" encoding="UTF-8"?> <svg xmlns="http://www.w3.org/2000/svg" width="52" height="47" viewBox="0 0 52 47" fill="none"><g clip-path="url(#clip0)"><path d="M24.0861 22.5421C25.2597 23.7519 27.0201 23.463 27.9139 22.5421L36.8243 13.3338C39.5417 10.5262 40.1104 5.19978 36.2826 1.93173C32.816 -1.02938 28.2389 0.324783 26 2.63589C23.7611 0.324783 19.184 -1.02938 15.7264 1.93173C11.8986 5.19978 12.4674 10.5262 15.1847 13.3338L24.0861 22.5421V22.5421ZM18.4618 5.25395C19.7347 4.17062 21.7208 4.44145 22.9125 5.67825L26 8.86506L29.0785 5.66923C30.2701 4.43242 32.2653 4.16159 33.5292 5.24492C35.2354 6.69839 34.9465 9.0727 33.7729 10.2915L26 18.3352L18.2271 10.2915C17.0444 9.08173 16.7646 6.70742 18.4618 5.25395V5.25395ZM49.8243 28.4012C47.0167 26.0178 43.5681 26.9477 41.8437 28.2387L36.391 32.3463H36.0931C36.075 28.9158 33.3396 26.2255 29.8458 26.2255H16.8458C14.2819 26.2255 11.7632 27.0741 9.75903 28.5998L7.20417 30.5678H1.44444C0.65 30.5678 0 31.2178 0 32.0123V33.4567C0 34.2512 0.65 34.9012 1.44444 34.9012H8.66667L12.3951 32.0574C13.659 31.0915 15.2299 30.5678 16.8549 30.5678H29.8549C32.3736 30.5678 32.4819 34.197 29.7556 34.197H24.3569C23.6708 34.197 23.1111 34.7567 23.1111 35.4428V35.4519C23.1111 36.138 23.6708 36.6977 24.3569 36.6977H36.4993C37.375 36.6977 38.2326 36.4088 38.9278 35.8852L44.4618 31.7234C45.2111 31.1637 46.3125 31.1185 47.0257 31.7234C47.9375 32.4908 47.8653 33.8088 46.9444 34.4949L37.8625 41.3109C37.1583 41.8345 36.3097 42.1234 35.434 42.1234H1.44444C0.65 42.1234 0 42.7734 0 43.5678V45.0123C0 45.8067 0.65 46.4567 1.44444 46.4567H35.4611C37.2576 46.4567 39.009 45.8699 40.4444 44.7866L49.5444 37.9345C51.0431 36.806 51.9368 35.0908 51.991 33.2401C52.0542 31.3894 51.2597 29.6199 49.8243 28.4012Z" fill="#19B99A"></path></g><defs><clipPath id="clip0"><rect y="0.234619" width="52" height="46.2222" fill="white"></rect></clipPath></defs></svg> 