<?xml version="1.0" encoding="UTF-8"?> <svg xmlns="http://www.w3.org/2000/svg" width="112" height="112" viewBox="0 0 112 112" fill="none"><circle cx="56" cy="56" r="56" fill="#EDF8F5"></circle><path fill-rule="evenodd" clip-rule="evenodd" d="M36.875 47H70.625C73.7277 47 76.25 49.5222 76.25 52.625C76.25 53.2595 76.151 53.849 75.9598 54.3732C75.7438 54.9582 76.043 55.604 76.6257 55.8177C77.2017 56.0382 77.8543 55.7367 78.0703 55.1517C78.356 54.3755 78.5 53.5272 78.5 52.625C78.5 49.7637 76.9664 47.2542 74.678 45.875C76.9664 44.4958 78.5 41.9862 78.5 39.125C78.5 34.7825 74.9675 31.25 70.625 31.25H36.875C32.5325 31.25 29 34.7825 29 39.125C29 41.9851 30.5324 44.4938 32.8193 45.8733C32.2763 46.2013 31.7692 46.5978 31.3085 47.0585C29.819 48.548 29 50.5235 29 52.625C29 55.4851 30.5324 57.9938 32.8193 59.3733C32.2763 59.7013 31.7692 60.0978 31.3085 60.5585C29.819 62.048 29 64.0235 29 66.125C29 70.4675 32.5325 74 36.875 74H50.375C50.996 74 51.5 73.496 51.5 72.875C51.5 72.254 50.996 71.75 50.375 71.75H36.875C33.7723 71.75 31.25 69.2278 31.25 66.125C31.25 64.6265 31.835 63.2113 32.8993 62.1493C33.9635 61.0873 35.3765 60.5 36.875 60.5L61.625 60.5C62.246 60.5 62.75 59.996 62.75 59.375V59.375C62.75 58.754 62.246 58.25 61.625 58.25H36.875C33.7723 58.25 31.25 55.7277 31.25 52.625C31.25 51.1265 31.835 49.7112 32.8993 48.6492C33.9629 47.5878 35.3749 47.0007 36.8725 47H36.875ZM70.625 44.75H36.875C33.7723 44.75 31.25 42.2278 31.25 39.125C31.25 36.0223 33.7723 33.5 36.875 33.5H70.625C73.7277 33.5 76.25 36.0223 76.25 39.125C76.25 42.2278 73.7277 44.75 70.625 44.75ZM76.2501 83H74.5401C69.7553 83 66.5282 82.0592 64.5993 81.2188C64.0293 82.2782 62.9097 83 61.625 83H59.375C57.5143 83 56 81.4858 56 79.625V68.375C56 66.5143 57.5143 65 59.375 65H61.625C62.3759 65 63.0703 65.2466 63.6316 65.663C64.8133 64.8582 67.1173 63.0144 67.1173 60.8825C67.1173 59.4943 67.1173 56.6075 69.8151 56.6075C71.6263 56.6075 73.5726 58.268 73.5726 61.9175C73.5726 63.1618 73.3588 64.2058 73.1068 65H77.5776C80.5678 65 83.0001 67.4323 83.0001 70.4225C83.0001 70.4945 82.7211 76.1398 81.6276 78.4393L81.7266 78.4573C81.3036 81.047 78.9478 83 76.2501 83ZM62.75 79.6203C62.7498 79.607 62.7498 79.5937 62.75 79.5803V68.375C62.75 67.7563 62.2438 67.25 61.625 67.25H59.375C58.7563 67.25 58.25 67.7563 58.25 68.375V79.625C58.25 80.2438 58.7563 80.75 59.375 80.75H61.625C62.2438 80.75 62.75 80.2438 62.75 79.625V79.6203ZM74.5401 80.75C69.5531 80.75 66.4655 79.6377 65 78.9227V68.375C65 68.0814 64.9623 67.7964 64.8915 67.5246C66.5394 66.4078 69.3673 64.0298 69.3673 60.8803C69.3673 59.204 69.6058 58.8845 69.8151 58.8553C70.4226 58.8553 71.3226 59.6698 71.3226 61.9153C71.3226 64.136 70.4608 65.4905 70.4563 65.4973C70.2246 65.8438 70.2021 66.287 70.3978 66.6538C70.5936 67.0205 70.9738 67.25 71.3901 67.25H77.5776C79.3258 67.25 80.7501 68.6743 80.7501 70.4023C80.7186 71.048 79.6656 77.3165 79.5261 77.9938C79.5171 78.0275 79.5103 78.059 79.5058 78.0928C79.2628 79.5823 77.8318 80.75 76.2501 80.75H74.5401ZM39.125 42.5C37.2642 42.5 35.75 40.9857 35.75 39.125C35.75 37.2642 37.2642 35.75 39.125 35.75C40.9858 35.75 42.5 37.2642 42.5 39.125C42.5 40.9857 40.9858 42.5 39.125 42.5ZM39.125 38C38.5063 38 38 38.5062 38 39.125C38 39.7437 38.5063 40.25 39.125 40.25C39.7437 40.25 40.25 39.7437 40.25 39.125C40.25 38.5062 39.7437 38 39.125 38ZM46.9999 39.125C46.9999 40.9857 48.5142 42.5 50.3749 42.5C52.2357 42.5 53.7499 40.9857 53.7499 39.125C53.7499 37.2642 52.2357 35.75 50.3749 35.75C48.5142 35.75 46.9999 37.2642 46.9999 39.125ZM49.2499 39.125C49.2499 38.5062 49.7562 38 50.3749 38C50.9937 38 51.4999 38.5062 51.4999 39.125C51.4999 39.7437 50.9937 40.25 50.3749 40.25C49.7562 40.25 49.2499 39.7437 49.2499 39.125ZM35.75 52.625C35.75 54.4858 37.2642 56 39.125 56C40.9858 56 42.5 54.4858 42.5 52.625C42.5 50.7643 40.9858 49.25 39.125 49.25C37.2642 49.25 35.75 50.7643 35.75 52.625ZM38 52.625C38 52.0063 38.5063 51.5 39.125 51.5C39.7437 51.5 40.25 52.0063 40.25 52.625C40.25 53.2438 39.7437 53.75 39.125 53.75C38.5063 53.75 38 53.2438 38 52.625ZM50.3749 56C48.5142 56 46.9999 54.4858 46.9999 52.625C46.9999 50.7643 48.5142 49.25 50.3749 49.25C52.2357 49.25 53.7499 50.7643 53.7499 52.625C53.7499 54.4858 52.2357 56 50.3749 56ZM50.3749 51.5C49.7562 51.5 49.2499 52.0063 49.2499 52.625C49.2499 53.2438 49.7562 53.75 50.3749 53.75C50.9937 53.75 51.4999 53.2438 51.4999 52.625C51.4999 52.0063 50.9937 51.5 50.3749 51.5ZM39.125 69.5C37.2642 69.5 35.75 67.9858 35.75 66.125C35.75 64.2643 37.2642 62.75 39.125 62.75C40.9858 62.75 42.5 64.2643 42.5 66.125C42.5 67.9858 40.9858 69.5 39.125 69.5ZM39.125 65C38.5063 65 38 65.5063 38 66.125C38 66.7438 38.5063 67.25 39.125 67.25C39.7437 67.25 40.25 66.7438 40.25 66.125C40.25 65.5063 39.7437 65 39.125 65ZM46.9999 66.125C46.9999 67.9858 48.5142 69.5 50.3749 69.5C52.2357 69.5 53.7499 67.9858 53.7499 66.125C53.7499 64.2643 52.2357 62.75 50.3749 62.75C48.5142 62.75 46.9999 64.2643 46.9999 66.125ZM49.2499 66.125C49.2499 65.5063 49.7562 65 50.3749 65C50.9937 65 51.4999 65.5063 51.4999 66.125C51.4999 66.7438 50.9937 67.25 50.3749 67.25C49.7562 67.25 49.2499 66.7438 49.2499 66.125Z" fill="#56AA97"></path></svg> 