<?xml version="1.0" encoding="UTF-8"?> <svg xmlns="http://www.w3.org/2000/svg" width="52" height="43" viewBox="0 0 52 43" fill="none"><path d="M44.2 19.0572C47.7912 19.0572 50.7 16.1485 50.7 12.5572C50.7 8.96596 47.7912 6.05721 44.2 6.05721C40.6087 6.05721 37.7 8.96596 37.7 12.5572C37.7 16.1485 40.6087 19.0572 44.2 19.0572ZM44.2 9.95721C45.63 9.95721 46.8 11.1272 46.8 12.5572C46.8 13.9872 45.63 15.1572 44.2 15.1572C42.77 15.1572 41.6 13.9872 41.6 12.5572C41.6 11.1272 42.77 9.95721 44.2 9.95721ZM7.8 19.0572C11.3912 19.0572 14.3 16.1485 14.3 12.5572C14.3 8.96596 11.3912 6.05721 7.8 6.05721C4.20875 6.05721 1.3 8.96596 1.3 12.5572C1.3 16.1485 4.20875 19.0572 7.8 19.0572ZM7.8 9.95721C9.23 9.95721 10.4 11.1272 10.4 12.5572C10.4 13.9872 9.23 15.1572 7.8 15.1572C6.37 15.1572 5.2 13.9872 5.2 12.5572C5.2 11.1272 6.37 9.95721 7.8 9.95721ZM40.0075 27.0928C37.7731 23.7778 33.4506 22.5428 29.6237 23.7047C28.47 24.0541 27.2594 24.2491 25.9919 24.2491C24.7244 24.2491 23.5138 24.0541 22.36 23.7047C18.5331 22.5428 14.2106 23.7697 11.9762 27.0928C10.9687 28.5878 10.3837 30.3835 10.3837 32.3172V35.9572C10.3837 38.1103 12.1306 39.8572 14.2837 39.8572H37.6837C39.8369 39.8572 41.5837 38.1103 41.5837 35.9572V32.3172C41.6 30.3835 41.015 28.5878 40.0075 27.0928ZM37.7 35.9572H14.3V32.3172C14.3 29.3597 16.6725 26.9385 19.6137 26.8572C21.6856 27.7185 23.8306 28.1572 26 28.1572C28.1694 28.1572 30.3144 27.7185 32.3862 26.8572C35.3275 26.9385 37.7 29.3516 37.7 32.3172V35.9572ZM45.175 21.6572H43.225C41.8194 21.6572 40.5112 22.0878 39.4225 22.8191C40.5112 23.6397 41.47 24.6228 42.2175 25.7603C42.5344 25.6466 42.8675 25.5572 43.2169 25.5572H45.1669C46.7756 25.5572 48.0919 26.8735 48.0919 28.4822C48.0919 29.5547 48.9694 30.4322 50.0419 30.4322C51.1144 30.4322 51.9919 29.5547 51.9919 28.4822C52 24.7203 48.9369 21.6572 45.175 21.6572ZM26 21.6572C31.0294 21.6572 35.1 17.5866 35.1 12.5572C35.1 7.52784 31.0294 3.45721 26 3.45721C20.9706 3.45721 16.9 7.52784 16.9 12.5572C16.9 17.5866 20.9706 21.6572 26 21.6572ZM26 7.35721C28.8681 7.35721 31.2 9.68909 31.2 12.5572C31.2 15.4253 28.8681 17.7572 26 17.7572C23.1319 17.7572 20.8 15.4253 20.8 12.5572C20.8 9.68909 23.1319 7.35721 26 7.35721ZM12.5775 22.8191C11.4887 22.0878 10.1806 21.6572 8.775 21.6572H6.825C3.06312 21.6572 0 24.7203 0 28.4822C0 29.5547 0.8775 30.4322 1.95 30.4322C3.0225 30.4322 3.9 29.5547 3.9 28.4822C3.9 26.8735 5.21625 25.5572 6.825 25.5572H8.775C9.1325 25.5572 9.46562 25.6466 9.77437 25.7603C10.53 24.6228 11.4887 23.6397 12.5775 22.8191Z" fill="#19B99A"></path></svg> 