<?xml version="1.0" encoding="UTF-8"?> <svg xmlns="http://www.w3.org/2000/svg" width="60" height="60" viewBox="0 0 60 60" fill="none"><circle cx="30" cy="30" r="30" fill="#F05133"></circle><path d="M49.3168 28.2506L31.8198 10.7557C30.813 9.74809 29.1789 9.74809 28.1709 10.7557L24.5378 14.3891L29.1462 18.9976C30.2176 18.6358 31.4455 18.8784 32.2991 19.7321C33.1572 20.5912 33.398 21.8296 33.0272 22.9046L37.4689 27.3463C38.5434 26.976 39.7833 27.2152 40.6413 28.0748C41.8409 29.2741 41.8409 31.2174 40.6413 32.4169C39.4415 33.6169 37.4982 33.6169 36.2978 32.4169C35.3957 31.5142 35.1726 30.1889 35.6295 29.0775L31.4871 24.9351L31.4868 35.8357C31.7792 35.9805 32.0552 36.1737 32.299 36.4164C33.4982 37.6155 33.4982 39.5585 32.299 40.7596C31.0993 41.9587 29.1552 41.9587 27.9568 40.7596C26.7574 39.5586 26.7574 37.6156 27.9568 36.4164C28.2532 36.1205 28.5962 35.8965 28.9622 35.7464V24.7445C28.596 24.5951 28.2535 24.3728 27.9566 24.0745C27.0481 23.1667 26.8293 21.8332 27.2952 20.7176L22.7522 16.1739L10.756 28.1698C9.74801 29.1782 9.74801 30.8123 10.756 31.82L28.2519 49.3149C29.2592 50.3226 30.8928 50.3226 31.9015 49.3149L49.3165 31.9027C50.3242 30.8946 50.3242 29.2599 49.3165 28.2521" fill="white"></path></svg> 