<?xml version="1.0" encoding="UTF-8"?> <svg xmlns="http://www.w3.org/2000/svg" xmlns:xlink="http://www.w3.org/1999/xlink" width="80px" height="80px" viewBox="0 0 80 80"><!-- Generator: Sketch 55.2 (78181) - https://sketchapp.com --><title>docker</title><desc>Created with Sketch.</desc><g id="Features" stroke="none" stroke-width="1" fill="none" fill-rule="evenodd"><g id="Desktop-Version" transform="translate(-920.000000, -5145.000000)" fill-rule="nonzero"><g id="docker" transform="translate(920.000000, 5145.000000)"><g id="Power-outlet-Copy" fill="#A5D9ED"><circle id="Oval" cx="40" cy="40" r="40"></circle></g><g transform="translate(13.000000, 20.000000)" id="Path"><polygon fill="#007AA4" points="30.9378177 18.7124506 25.0942204 18.7124506 25.0942204 13.6136364 30.9378177 13.6136364"></polygon><polygon fill="#007AA4" points="30.9378177 0.866600791 25.0942204 0.866600791 25.0942204 5.96541502 30.9378177 5.96541502"></polygon><polygon fill="#007AA4" points="37.6162145 13.6136364 31.7726173 13.6136364 31.7726173 18.7124506 37.6162145 18.7124506 37.6162145 13.6136364"></polygon><polygon fill="#007AA4" points="24.2594208 7.66501976 18.4158235 7.66501976 18.4158235 12.763834 24.2594208 12.763834"></polygon><polygon fill="#007AA4" points="30.9378177 7.66501976 25.0942204 7.66501976 25.0942204 12.763834 30.9378177 12.763834"></polygon><path d="M54.8369041,15.6881259 C53.5973111,14.8333219 50.7393606,14.5248874 48.544248,14.9478832 C48.2601746,12.8329043 47.1066644,10.99111 45.006243,9.3343765 L43.8010831,8.51482213 L43.0005126,9.74855988 C41.4165883,12.1984106 40.986174,16.2344955 42.6820061,18.895844 C41.9330853,19.3100274 40.4610687,19.8740218 38.5155963,19.8387722 L1.09538285,19.8387722 C0.34646208,24.3154777 1.59466336,30.13167 4.8830281,34.1236928 C8.07670172,37.9923419 12.862908,39.9575099 19.121131,39.9575099 C32.670571,39.9575099 42.6992227,33.5685108 47.3907378,21.9625636 C49.2329108,21.9978132 53.2099383,21.971376 55.2501017,17.9793531 C55.379226,17.7590428 55.8182485,16.8161147 55.9818059,16.4724306 L54.8369041,15.6881259 Z" fill="#008ABA"></path><polygon fill="#007AA4" points="10.8937865 13.6136364 5.05902979 13.6136364 5.05902979 18.7124506 10.9026271 18.7124506 10.9026271 13.6136364"></polygon><polygon fill="#007AA4" points="17.5810239 13.6136364 11.7374267 13.6136364 11.7374267 18.7124506 17.5810239 18.7124506"></polygon><polygon fill="#007AA4" points="24.2594208 13.6136364 18.4158235 13.6136364 18.4158235 18.7124506 24.2594208 18.7124506"></polygon><polygon fill="#007AA4" points="17.5810239 7.66501976 11.7374267 7.66501976 11.7374267 12.763834 17.5810239 12.763834"></polygon></g></g></g></g></svg> 