<?xml version="1.0" encoding="UTF-8"?> <svg xmlns="http://www.w3.org/2000/svg" xmlns:xlink="http://www.w3.org/1999/xlink" width="120px" height="120px" viewBox="0 0 120 120"><!-- Generator: Sketch 55.2 (78181) - https://sketchapp.com --><title>features-icon-1</title><desc>Created with Sketch.</desc><defs><linearGradient x1="50%" y1="0%" x2="50%" y2="100%" id="linearGradient-1"><stop stop-color="#044D40" offset="0%"></stop><stop stop-color="#29434B" stop-opacity="0" offset="100%"></stop></linearGradient></defs><g id="Features" stroke="none" stroke-width="1" fill="none" fill-rule="evenodd"><g id="Desktop-Version" transform="translate(-375.000000, -1732.000000)"><g id="features-icon-1" transform="translate(375.000000, 1732.000000)"><circle id="Oval-Copy-2" fill="url(#linearGradient-1)" opacity="0.1" cx="60" cy="60" r="60"></circle><g id="Group-57-Copy" transform="translate(34.000000, 35.000000)"><polygon id="Stroke-82" stroke="#2AAD96" stroke-width="1.68000004" stroke-linecap="round" stroke-linejoin="round" points="9.16666667 19.4310345 12.5 19.4310345 12.5 16.0517241 9.16666667 16.0517241"></polygon><polygon id="Stroke-83" stroke="#2AAD96" stroke-width="1.68000004" stroke-linecap="round" stroke-linejoin="round" points="9.16666667 29.5689655 12.5 29.5689655 12.5 26.1896552 9.16666667 26.1896552"></polygon><polygon id="Stroke-84" stroke="#2AAD96" stroke-width="1.68000004" stroke-linecap="round" stroke-linejoin="round" points="9.16666667 39.7068966 12.5 39.7068966 12.5 36.3275862 9.16666667 36.3275862"></polygon><path d="M12.5,17.7413793 L20.8333333,17.7413793" id="Stroke-85" stroke="#2AAD96" stroke-width="1.68000004" stroke-linecap="round" stroke-linejoin="round"></path><path d="M12.5,27.8793103 L20.8333333,27.8793103" id="Stroke-86" stroke="#2AAD96" stroke-width="1.68000004" stroke-linecap="round" stroke-linejoin="round"></path><path d="M12.5,38.0172414 L20.8333333,38.0172414" id="Stroke-87" stroke="#2AAD96" stroke-width="1.68000004" stroke-linecap="round" stroke-linejoin="round"></path><path d="M49.1666667,43.8541552 C49.1666667,46.2298103 47.2,48.1543276 44.7733333,48.1543276 L5.22666667,48.1543276 C2.8,48.1543276 0.833333333,46.2298103 0.833333333,43.8541552 L0.833333333,5.14584483 C0.833333333,2.77018966 2.8,0.843982759 5.22666667,0.843982759 L44.7733333,0.843982759 C47.2,0.843982759 49.1666667,2.77018966 49.1666667,5.14584483 L49.1666667,43.8541552 L49.1666667,43.8541552 Z" id="Stroke-88" stroke="#2AAD96" stroke-width="1.68000004" stroke-linecap="round" stroke-linejoin="round"></path><path d="M0.833333333,7.60344828 L49.1666667,7.60344828" id="Stroke-90" stroke="#2AAD96" stroke-width="1.68000004" stroke-linecap="round" stroke-linejoin="round"></path><path d="M6.66666667,4.22413793 C6.66666667,4.69048276 6.29333333,5.06896552 5.83333333,5.06896552 C5.37333333,5.06896552 5,4.69048276 5,4.22413793 C5,3.7577931 5.37333333,3.37931034 5.83333333,3.37931034 C6.29333333,3.37931034 6.66666667,3.7577931 6.66666667,4.22413793" id="Fill-92" fill="#2AAD96"></path><path d="M11.6666667,4.22413793 C11.6666667,4.69048276 11.2933333,5.06896552 10.8333333,5.06896552 C10.3733333,5.06896552 10,4.69048276 10,4.22413793 C10,3.7577931 10.3733333,3.37931034 10.8333333,3.37931034 C11.2933333,3.37931034 11.6666667,3.7577931 11.6666667,4.22413793" id="Fill-94" fill="#2AAD96"></path><path d="M16.6666667,4.22413793 C16.6666667,4.69048276 16.2933333,5.06896552 15.8333333,5.06896552 C15.3733333,5.06896552 15,4.69048276 15,4.22413793 C15,3.7577931 15.3733333,3.37931034 15.8333333,3.37931034 C16.2933333,3.37931034 16.6666667,3.7577931 16.6666667,4.22413793" id="Fill-96" fill="#2AAD96"></path><polygon id="Stroke-98" stroke="#2AAD96" stroke-width="1.68000004" stroke-linecap="round" stroke-linejoin="round" points="29.1666667 19.4310345 32.5 19.4310345 32.5 16.0517241 29.1666667 16.0517241"></polygon><polygon id="Stroke-100" stroke="#2AAD96" stroke-width="1.68000004" stroke-linecap="round" stroke-linejoin="round" points="29.1666667 29.5689655 32.5 29.5689655 32.5 26.1896552 29.1666667 26.1896552"></polygon><polygon id="Stroke-101" stroke="#2AAD96" stroke-width="1.68000004" stroke-linecap="round" stroke-linejoin="round" points="29.1666667 39.7068966 32.5 39.7068966 32.5 36.3275862 29.1666667 36.3275862"></polygon><path d="M32.5,17.7413793 L40.8333333,17.7413793" id="Stroke-102" stroke="#2AAD96" stroke-width="1.68000004" stroke-linecap="round" stroke-linejoin="round"></path><path d="M32.5,27.8793103 L40.8333333,27.8793103" id="Stroke-103" stroke="#2AAD96" stroke-width="1.68000004" stroke-linecap="round" stroke-linejoin="round"></path><path d="M32.5,38.0172414 L40.8333333,38.0172414" id="Stroke-104" stroke="#2AAD96" stroke-width="1.68000004" stroke-linecap="round" stroke-linejoin="round"></path></g></g></g></g></svg> 