<?xml version="1.0" encoding="UTF-8"?> <svg xmlns="http://www.w3.org/2000/svg" xmlns:xlink="http://www.w3.org/1999/xlink" width="120px" height="120px" viewBox="0 0 120 120"><!-- Generator: Sketch 55.2 (78181) - https://sketchapp.com --><title>features-icon-2</title><desc>Created with Sketch.</desc><defs><linearGradient x1="50%" y1="0%" x2="50%" y2="100%" id="linearGradient-1"><stop stop-color="#044D40" offset="0%"></stop><stop stop-color="#29434B" stop-opacity="0" offset="100%"></stop></linearGradient></defs><g id="Features" stroke="none" stroke-width="1" fill="none" fill-rule="evenodd"><g id="Desktop-Version" transform="translate(-975.000000, -1732.000000)"><g id="features-icon-2" transform="translate(975.000000, 1732.000000)"><circle id="Oval" fill="url(#linearGradient-1)" opacity="0.1" cx="60" cy="60" r="60"></circle><g id="Group-51-Copy" transform="translate(35.000000, 35.000000)"><polygon id="Stroke-175" stroke="#2AAD96" stroke-width="1.68000004" stroke-linecap="round" stroke-linejoin="round" points="9.16666667 19.1666667 12.5 19.1666667 12.5 15.8333333 9.16666667 15.8333333"></polygon><polygon id="Stroke-176" stroke="#2AAD96" stroke-width="1.68000004" stroke-linecap="round" stroke-linejoin="round" points="15.8333333 29.1666667 19.1666667 29.1666667 19.1666667 25.8333333 15.8333333 25.8333333"></polygon><polygon id="Stroke-177" stroke="#2AAD96" stroke-width="1.68000004" stroke-linecap="round" stroke-linejoin="round" points="15.8333333 40.8333333 19.1666667 40.8333333 19.1666667 37.5 15.8333333 37.5"></polygon><polyline id="Stroke-178" stroke="#2AAD96" stroke-width="1.68000004" stroke-linecap="round" stroke-linejoin="round" points="10.8333333 19.1666667 10.8333333 39.1666667 15.8333333 39.1666667"></polyline><path d="M10.8333333,27.5 L15.8333333,27.5" id="Stroke-179" stroke="#2AAD96" stroke-width="1.68000004" stroke-linecap="round" stroke-linejoin="round"></path><path d="M19.1666667,17.5 L34.1666667,17.5" id="Stroke-180" stroke="#2AAD96" stroke-width="1.68000004" stroke-linecap="round" stroke-linejoin="round"></path><path d="M25.8333333,27.5 L40.8333333,27.5" id="Stroke-181" stroke="#2AAD96" stroke-width="1.68000004" stroke-linecap="round" stroke-linejoin="round"></path><path d="M25.8333333,39.1666667 L40.8333333,39.1666667" id="Stroke-182" stroke="#2AAD96" stroke-width="1.68000004" stroke-linecap="round" stroke-linejoin="round"></path><path d="M49.1666667,44.7726667 C49.1666667,47.1993333 47.2,49.166 44.7733333,49.166 L5.22666667,49.166 C2.8,49.166 0.833333333,47.1993333 0.833333333,44.7726667 L0.833333333,5.22766667 C0.833333333,2.801 2.8,0.832666667 5.22666667,0.832666667 L44.7733333,0.832666667 C47.2,0.832666667 49.1666667,2.801 49.1666667,5.22766667 L49.1666667,44.7726667 L49.1666667,44.7726667 Z" id="Stroke-183" stroke="#2AAD96" stroke-width="1.68000004" stroke-linecap="round" stroke-linejoin="round"></path><path d="M0.833333333,7.5 L49.1666667,7.5" id="Stroke-185" stroke="#2AAD96" stroke-width="1.68000004" stroke-linecap="round" stroke-linejoin="round"></path><path d="M6.66666667,4.16666667 C6.66666667,4.62666667 6.29333333,5 5.83333333,5 C5.37333333,5 5,4.62666667 5,4.16666667 C5,3.70666667 5.37333333,3.33333333 5.83333333,3.33333333 C6.29333333,3.33333333 6.66666667,3.70666667 6.66666667,4.16666667" id="Fill-187" fill="#2AAD96"></path><path d="M11.6666667,4.16666667 C11.6666667,4.62666667 11.2933333,5 10.8333333,5 C10.3733333,5 10,4.62666667 10,4.16666667 C10,3.70666667 10.3733333,3.33333333 10.8333333,3.33333333 C11.2933333,3.33333333 11.6666667,3.70666667 11.6666667,4.16666667" id="Fill-189" fill="#2AAD96"></path><path d="M16.6666667,4.16666667 C16.6666667,4.62666667 16.2933333,5 15.8333333,5 C15.3733333,5 15,4.62666667 15,4.16666667 C15,3.70666667 15.3733333,3.33333333 15.8333333,3.33333333 C16.2933333,3.33333333 16.6666667,3.70666667 16.6666667,4.16666667" id="Fill-191" fill="#2AAD96"></path></g></g></g></g></svg> 