<?xml version="1.0" encoding="UTF-8"?> <svg xmlns="http://www.w3.org/2000/svg" xmlns:xlink="http://www.w3.org/1999/xlink" width="67px" height="67px" viewBox="0 0 67 67"><!-- Generator: Sketch 55.2 (78181) - https://sketchapp.com --><title>servers-hydrid</title><desc>Created with Sketch.</desc><g id="Features" stroke="none" stroke-width="1" fill="none" fill-rule="evenodd"><g id="Desktop-Version" transform="translate(-776.000000, -6466.000000)"><g id="servers-hydrid" transform="translate(776.000000, 6466.000000)"><circle id="Oval" fill="#EBF8F5" cx="33.5" cy="33.5" r="33.5"></circle><g id="Group" transform="translate(20.000000, 22.000000)" stroke="#2AAD96" stroke-linecap="round" stroke-linejoin="round" stroke-width="1.1"><path d="M25.5652174,16.9473684 L2.43478261,16.9473684 C1.08956522,16.9473684 0,15.8639474 0,14.5263158 L0,12.1052632 C0,10.7676316 1.08956522,9.68421053 2.43478261,9.68421053 L25.5652174,9.68421053 C26.9104348,9.68421053 28,10.7676316 28,12.1052632 L28,14.5263158 C28,15.8639474 26.9104348,16.9473684 25.5652174,16.9473684 Z" id="Stroke-3063"></path><path d="M4.86956522,13.3157895 C4.86956522,13.984 4.32417391,14.5263158 3.65217391,14.5263158 C2.98017391,14.5263158 2.43478261,13.984 2.43478261,13.3157895 C2.43478261,12.6475789 2.98017391,12.1052632 3.65217391,12.1052632 C4.32417391,12.1052632 4.86956522,12.6475789 4.86956522,13.3157895 Z" id="Stroke-3064"></path><path d="M24.3478261,14.5263158 L24.3478261,12.1052632" id="Stroke-3065"></path><path d="M21.9130435,14.5263158 L21.9130435,12.1052632" id="Stroke-3066"></path><path d="M19.4782609,14.5263158 L19.4782609,12.1052632" id="Stroke-3067"></path><path d="M17.0434783,14.5263158 L17.0434783,12.1052632" id="Stroke-3068"></path><path d="M25.5652174,7.26315789 L2.43478261,7.26315789 C1.08956522,7.26315789 0,6.17973684 0,4.84210526 L0,2.42105263 C0,1.08342105 1.08956522,0 2.43478261,0 L25.5652174,0 C26.9104348,0 28,1.08342105 28,2.42105263 L28,4.84210526 C28,6.17973684 26.9104348,7.26315789 25.5652174,7.26315789 Z" id="Stroke-3069"></path><path d="M4.86956522,3.63157895 C4.86956522,4.29978947 4.32417391,4.84210526 3.65217391,4.84210526 C2.98017391,4.84210526 2.43478261,4.29978947 2.43478261,3.63157895 C2.43478261,2.96336842 2.98017391,2.42105263 3.65217391,2.42105263 C4.32417391,2.42105263 4.86956522,2.96336842 4.86956522,3.63157895 Z" id="Stroke-3070"></path><path d="M24.3478261,4.84210526 L24.3478261,2.42105263" id="Stroke-3071"></path><path d="M21.9130435,4.84210526 L21.9130435,2.42105263" id="Stroke-3072"></path><path d="M19.4782609,4.84210526 L19.4782609,2.42105263" id="Stroke-3073"></path><path d="M17.0434783,4.84210526 L17.0434783,2.42105263" id="Stroke-3074"></path><path d="M10.9565217,7.26315789 L10.9565217,9.68421053" id="Stroke-3075"></path><polygon id="Stroke-3076" points="12.173913 20.5789474 12.173913 19.3684211 9.73913043 19.3684211 9.73913043 20.5789474 8.52173913 20.5789474 8.52173913 23 9.73913043 23 12.173913 23 13.3913043 23 13.3913043 20.5789474"></polygon><path d="M10.9565217,19.3684211 L10.9565217,16.9473684" id="Stroke-3077"></path><path d="M13.3913043,21.7894737 L19.4782609,21.7894737" id="Stroke-3078"></path><path d="M8.52173913,21.7894737 L2.43478261,21.7894737" id="Stroke-3079"></path></g></g></g></g></svg> 